<svg xmlns="http://www.w3.org/2000/svg" xmlns:xlink="http://www.w3.org/1999/xlink" width="1920" zoomAndPan="magnify" viewBox="0 0 1440 809.999993" height="1080" preserveAspectRatio="xMidYMid meet" version="1.0"><defs><clipPath id="4b66e6cdb9"><path d="M 0 0 L 1440 0 L 1440 355.566406 L 0 355.566406 Z M 0 0 " clip-rule="nonzero"/></clipPath></defs><rect x="-144" width="1728" fill="#ffffff" y="-80.999999" height="971.999992" fill-opacity="1"/><rect x="-144" width="1728" fill="#ffffff" y="-80.999999" height="971.999992" fill-opacity="1"/><path fill="#fd54ec" d="M 1438.855469 764.625 C 1438.855469 764.625 1296.03125 809.910156 1075.777344 724.65625 C 855.519531 639.398438 774.316406 578.007812 598.457031 604.089844 C 422.59375 630.167969 238.367188 698 1.578125 610.761719 L 1.144531 559.203125 L 843.46875 422.964844 L 1438.855469 519.898438 Z M 1438.855469 764.625 " fill-opacity="1" fill-rule="nonzero"/><path fill="#ffc8f8" d="M 1438.855469 644.058594 C 1438.855469 644.058594 1318.574219 677.355469 1117.871094 608.085938 C 917.167969 538.816406 837.460938 458.21875 600.671875 536.804688 C 363.878906 615.390625 242.078125 675.371094 1.519531 602.765625 L 1.519531 401.945312 L 1438.855469 387.714844 Z M 1438.855469 644.058594 " fill-opacity="1" fill-rule="nonzero"/><path fill="#ffc8f8" d="M 1.144531 602.421875 C 1.144531 602.421875 181.578125 666.371094 361.980469 591.09375 C 542.386719 515.8125 663.441406 381.1875 911.503906 403.929688 C 1159.566406 426.675781 1212.589844 538.15625 1438.855469 467.535156 L 1438.855469 346.96875 L 1.519531 346.96875 Z M 1.144531 602.421875 " fill-opacity="1" fill-rule="nonzero"/><path fill="#ff95eb" d="M 1.144531 602.421875 C 1.144531 602.421875 181.578125 666.371094 361.980469 591.09375 C 542.386719 515.8125 663.441406 381.1875 911.503906 403.929688 C 1159.566406 426.675781 1212.589844 538.15625 1438.855469 467.535156 L 1438.855469 432.140625 C 1438.855469 432.140625 1316.734375 482.457031 1165.890625 429.261719 C 972.261719 360.855469 810.058594 311.199219 564.582031 443.640625 C 224.046875 627.378906 79.988281 552.90625 1.289062 503.363281 Z M 1.144531 602.421875 " fill-opacity="1" fill-rule="nonzero"/><path fill="#ff95eb" d="M 1132.132812 558.800781 C 966.769531 500.832031 809.65625 412.15625 605.183594 510.175781 C 418.945312 599.316406 338.519531 619.214844 325.636719 622.03125 C 408.160156 604.777344 492.410156 572.746094 600.671875 536.804688 C 837.460938 458.21875 917.136719 538.816406 1117.871094 608.085938 C 1318.605469 677.355469 1438.855469 644.058594 1438.855469 644.058594 L 1438.855469 571.941406 C 1404.089844 580.914062 1273.632812 608.375 1132.132812 558.800781 Z M 1132.132812 558.800781 " fill-opacity="1" fill-rule="nonzero"/><g clip-path="url(#4b66e6cdb9)"><path fill="#ffc8f8" d="M 0 0 L 1470.882812 0 L 1470.882812 355.566406 L 0 355.566406 Z M 0 0 " fill-opacity="1" fill-rule="nonzero"/></g></svg>