<svg xmlns="http://www.w3.org/2000/svg" xmlns:xlink="http://www.w3.org/1999/xlink" width="1920" zoomAndPan="magnify" viewBox="0 0 1440 809.999993" height="1080" preserveAspectRatio="xMidYMid meet" version="1.0"><defs><clipPath id="ce8a3bb17e"><path d="M 0 0 L 1440 0 L 1440 47.960938 L 0 47.960938 Z M 0 0 " clip-rule="nonzero"/></clipPath></defs><rect x="-144" width="1728" fill="#ffffff" y="-80.999999" height="971.999992" fill-opacity="1"/><rect x="-144" width="1728" fill="#ffffff" y="-80.999999" height="971.999992" fill-opacity="1"/><path fill="#fd54ec" d="M 1438.855469 457.015625 C 1438.855469 457.015625 1296.03125 502.304688 1075.777344 417.046875 C 855.519531 331.792969 774.316406 270.402344 598.457031 296.480469 C 422.59375 322.5625 238.367188 390.394531 1.578125 303.152344 L 1.144531 251.597656 L 843.46875 115.359375 L 1438.855469 212.289062 Z M 1438.855469 457.015625 " fill-opacity="1" fill-rule="nonzero"/><path fill="#ffc8f8" d="M 1438.855469 336.449219 C 1438.855469 336.449219 1318.574219 369.746094 1117.871094 300.480469 C 917.167969 231.210938 837.460938 150.613281 600.671875 229.195312 C 363.878906 307.78125 242.078125 367.761719 1.519531 295.160156 L 1.519531 94.339844 L 1438.855469 80.105469 Z M 1438.855469 336.449219 " fill-opacity="1" fill-rule="nonzero"/><path fill="#ffc8f8" d="M 1.144531 294.8125 C 1.144531 294.8125 181.578125 358.761719 361.980469 283.484375 C 542.386719 208.207031 663.441406 73.578125 911.503906 96.324219 C 1159.566406 119.070312 1212.589844 230.546875 1438.855469 159.929688 L 1438.855469 39.363281 L 1.519531 39.363281 Z M 1.144531 294.8125 " fill-opacity="1" fill-rule="nonzero"/><path fill="#ff95eb" d="M 1.144531 294.8125 C 1.144531 294.8125 181.578125 358.761719 361.980469 283.484375 C 542.386719 208.207031 663.441406 73.578125 911.503906 96.324219 C 1159.566406 119.070312 1212.589844 230.546875 1438.855469 159.929688 L 1438.855469 124.53125 C 1438.855469 124.53125 1316.734375 174.851562 1165.890625 121.65625 C 972.261719 53.25 810.058594 3.59375 564.582031 136.035156 C 224.046875 319.773438 79.988281 245.300781 1.289062 195.757812 Z M 1.144531 294.8125 " fill-opacity="1" fill-rule="nonzero"/><path fill="#ff95eb" d="M 1132.132812 251.195312 C 966.769531 193.226562 809.65625 104.546875 605.183594 202.570312 C 418.945312 291.707031 338.519531 311.605469 325.636719 314.425781 C 408.160156 297.171875 492.410156 265.140625 600.671875 229.195312 C 837.460938 150.613281 917.136719 231.210938 1117.871094 300.480469 C 1318.605469 369.746094 1438.855469 336.449219 1438.855469 336.449219 L 1438.855469 264.335938 C 1404.089844 273.304688 1273.632812 300.765625 1132.132812 251.195312 Z M 1132.132812 251.195312 " fill-opacity="1" fill-rule="nonzero"/><g clip-path="url(#ce8a3bb17e)"><path fill="#ffc8f8" d="M 0 -307.605469 L 1470.882812 -307.605469 L 1470.882812 47.960938 L 0 47.960938 Z M 0 -307.605469 " fill-opacity="1" fill-rule="nonzero"/></g></svg>