<svg xmlns="http://www.w3.org/2000/svg" xmlns:xlink="http://www.w3.org/1999/xlink" width="1920" zoomAndPan="magnify" viewBox="0 0 1440 809.999993" height="1080" preserveAspectRatio="xMidYMid meet" version="1.0"><defs><clipPath id="f80ea3a9fd"><path d="M 126 276.910156 L 223 276.910156 L 223 374 L 126 374 Z M 126 276.910156 " clip-rule="nonzero"/></clipPath><clipPath id="2ad8fa2674"><path d="M 29.632812 277 L 127 277 L 127 375 L 29.632812 375 Z M 29.632812 277 " clip-rule="nonzero"/></clipPath><clipPath id="c17c2c6a13"><path d="M 1268 277 L 1396.132812 277 L 1396.132812 406 L 1268 406 Z M 1268 277 " clip-rule="nonzero"/></clipPath><clipPath id="6ee94e676e"><path d="M 1140 405 L 1269 405 L 1269 533.410156 L 1140 533.410156 Z M 1140 405 " clip-rule="nonzero"/></clipPath><clipPath id="fb1eb5652e"><path d="M 1268 405 L 1396 405 L 1396 533.410156 L 1268 533.410156 Z M 1268 405 " clip-rule="nonzero"/></clipPath><clipPath id="37b9d74f6c"><path d="M 223 276.910156 L 351 276.910156 L 351 406 L 223 406 Z M 223 276.910156 " clip-rule="nonzero"/></clipPath><clipPath id="112e52be9e"><path d="M 878 276.910156 L 1007 276.910156 L 1007 405 L 878 405 Z M 878 276.910156 " clip-rule="nonzero"/></clipPath><clipPath id="d041ebbbe9"><path d="M 350 405 L 479 405 L 479 533.410156 L 350 533.410156 Z M 350 405 " clip-rule="nonzero"/></clipPath><clipPath id="3db7cb9215"><path d="M 483 405 L 612 405 L 612 533.410156 L 483 533.410156 Z M 483 405 " clip-rule="nonzero"/></clipPath><clipPath id="8850d00614"><path d="M 750 276.910156 L 879 276.910156 L 879 406 L 750 406 Z M 750 276.910156 " clip-rule="nonzero"/></clipPath><clipPath id="9397c5da65"><path d="M 57 395 L 195 395 L 195 533.410156 L 57 533.410156 Z M 57 395 " clip-rule="nonzero"/></clipPath></defs><path fill="#f24c3d" d="M 483.761719 405.183594 L 483.761719 277.769531 L 610.300781 277.769531 C 610.300781 278.011719 610.300781 278.257812 610.300781 278.503906 C 610.351562 348.453125 553.683594 405.183594 483.761719 405.183594 Z M 483.761719 405.183594 " fill-opacity="1" fill-rule="nonzero"/><path fill="#22a699" d="M 616.265625 277.71875 L 743.539062 277.71875 L 743.539062 404.402344 C 743.292969 404.402344 743.050781 404.402344 742.804688 404.402344 C 672.933594 404.449219 616.265625 347.71875 616.265625 277.71875 Z M 616.265625 277.71875 " fill-opacity="1" fill-rule="nonzero"/><path fill="#f24c3d" d="M 1136.746094 404.941406 L 1136.746094 532.355469 L 1010.160156 532.355469 C 1010.160156 532.109375 1010.160156 531.867188 1010.160156 531.621094 C 1010.160156 461.621094 1066.828125 404.941406 1136.746094 404.941406 Z M 1136.746094 404.941406 " fill-opacity="1" fill-rule="nonzero"/><path fill="#22a699" d="M 1004.242188 532.355469 L 876.972656 532.355469 L 876.972656 405.675781 C 877.214844 405.675781 877.460938 405.675781 877.707031 405.675781 C 947.574219 405.625 1004.242188 462.355469 1004.242188 532.355469 Z M 1004.242188 532.355469 " fill-opacity="1" fill-rule="nonzero"/><g clip-path="url(#f80ea3a9fd)"><path fill="#22a699" d="M 222.910156 373.464844 L 222.375 373.464844 C 169.128906 373.464844 126.003906 330.242188 126.003906 276.984375 C 126.199219 276.984375 126.394531 276.984375 126.539062 276.984375 C 179.785156 276.984375 222.910156 320.207031 222.910156 373.464844 Z M 222.910156 373.464844 " fill-opacity="1" fill-rule="nonzero"/></g><g clip-path="url(#2ad8fa2674)"><path fill="#f2be22" d="M 126.003906 277.574219 C 126.003906 330.878906 82.828125 374.050781 29.632812 374.050781 L 29.632812 373.515625 C 29.632812 320.207031 72.804688 277.035156 126.003906 277.035156 C 126.003906 277.179688 126.003906 277.378906 126.003906 277.574219 Z M 126.003906 277.574219 " fill-opacity="1" fill-rule="nonzero"/></g><path fill="#f29727" d="M 615.925781 405.527344 L 616.65625 405.527344 C 686.96875 405.527344 743.929688 462.601562 743.929688 532.941406 C 743.6875 532.941406 743.441406 532.941406 743.195312 532.941406 C 672.886719 532.992188 615.925781 475.917969 615.925781 405.527344 Z M 615.925781 405.527344 " fill-opacity="1" fill-rule="nonzero"/><path fill="#f24c3d" d="M 743.929688 532.257812 C 743.929688 461.867188 800.941406 404.839844 871.203125 404.839844 L 871.203125 405.574219 C 871.203125 475.964844 814.191406 532.992188 743.929688 532.992188 C 743.929688 532.746094 743.929688 532.5 743.929688 532.257812 Z M 743.929688 532.257812 " fill-opacity="1" fill-rule="nonzero"/><g clip-path="url(#c17c2c6a13)"><path fill="#22a699" d="M 1396.132812 405.183594 L 1395.398438 405.183594 C 1325.089844 405.183594 1268.125 348.109375 1268.125 277.769531 C 1268.371094 277.769531 1268.617188 277.769531 1268.859375 277.769531 C 1339.171875 277.71875 1396.132812 334.796875 1396.132812 405.183594 Z M 1396.132812 405.183594 " fill-opacity="1" fill-rule="nonzero"/></g><path fill="#f2be22" d="M 1268.125 278.453125 C 1268.125 348.84375 1211.117188 405.871094 1140.855469 405.871094 L 1140.855469 405.136719 C 1140.855469 334.746094 1197.867188 277.71875 1268.125 277.71875 C 1268.125 277.964844 1268.125 278.210938 1268.125 278.453125 Z M 1268.125 278.453125 " fill-opacity="1" fill-rule="nonzero"/><g clip-path="url(#6ee94e676e)"><path fill="#f29727" d="M 1140.660156 405.917969 L 1141.390625 405.917969 C 1211.703125 405.917969 1268.664062 462.992188 1268.664062 533.332031 C 1268.421875 533.332031 1268.175781 533.332031 1267.929688 533.332031 C 1197.667969 533.332031 1140.660156 476.257812 1140.660156 405.917969 Z M 1140.660156 405.917969 " fill-opacity="1" fill-rule="nonzero"/></g><g clip-path="url(#fb1eb5652e)"><path fill="#f24c3d" d="M 1268.714844 532.601562 C 1268.714844 462.210938 1325.722656 405.183594 1395.984375 405.183594 L 1395.984375 405.917969 C 1395.984375 476.308594 1338.976562 533.332031 1268.714844 533.332031 C 1268.714844 533.089844 1268.714844 532.84375 1268.714844 532.601562 Z M 1268.714844 532.601562 " fill-opacity="1" fill-rule="nonzero"/></g><g clip-path="url(#37b9d74f6c)"><path fill="#f2be22" d="M 350.476562 276.984375 L 350.476562 405.136719 L 223.15625 405.136719 C 223.15625 404.890625 223.15625 404.644531 223.15625 404.402344 C 223.15625 334.0625 280.167969 276.984375 350.476562 276.984375 Z M 350.476562 276.984375 " fill-opacity="1" fill-rule="nonzero"/></g><path fill="#22a699" d="M 478.484375 405.183594 L 350.476562 405.183594 L 350.476562 277.769531 C 350.722656 277.769531 350.964844 277.769531 351.210938 277.769531 C 421.472656 277.71875 478.484375 334.796875 478.484375 405.183594 Z M 478.484375 405.183594 " fill-opacity="1" fill-rule="nonzero"/><path fill="#f2be22" d="M 1006.394531 405.183594 L 1006.394531 277.035156 L 1133.667969 277.035156 C 1133.667969 277.28125 1133.667969 277.523438 1133.667969 277.769531 C 1133.667969 348.109375 1076.707031 405.183594 1006.394531 405.183594 Z M 1006.394531 405.183594 " fill-opacity="1" fill-rule="nonzero"/><g clip-path="url(#112e52be9e)"><path fill="#22a699" d="M 878.390625 276.984375 L 1006.394531 276.984375 L 1006.394531 404.402344 C 1006.152344 404.402344 1005.90625 404.402344 1005.660156 404.402344 C 935.351562 404.449219 878.390625 347.375 878.390625 276.984375 Z M 878.390625 276.984375 " fill-opacity="1" fill-rule="nonzero"/></g><path fill="#f29727" d="M 222.421875 405.183594 L 350.429688 405.183594 L 350.429688 532.601562 C 350.183594 532.601562 349.9375 532.601562 349.695312 532.601562 C 279.433594 532.601562 222.421875 475.523438 222.421875 405.183594 Z M 222.421875 405.183594 " fill-opacity="1" fill-rule="nonzero"/><g clip-path="url(#d041ebbbe9)"><path fill="#f24c3d" d="M 350.476562 533.332031 L 350.476562 405.183594 L 478.484375 405.183594 C 435.796875 447.867188 393.113281 490.601562 350.476562 533.332031 Z M 350.476562 533.332031 " fill-opacity="1" fill-rule="nonzero"/></g><g clip-path="url(#3db7cb9215)"><path fill="#f29727" d="M 611.085938 469.257812 C 611.085938 470.308594 611.058594 471.355469 611.007812 472.402344 C 610.957031 473.449219 610.878906 474.496094 610.777344 475.539062 C 610.671875 476.582031 610.546875 477.625 610.390625 478.660156 C 610.238281 479.699219 610.058594 480.730469 609.855469 481.757812 C 609.648438 482.789062 609.421875 483.8125 609.164062 484.828125 C 608.910156 485.84375 608.632812 486.855469 608.328125 487.859375 C 608.023438 488.863281 607.695312 489.859375 607.34375 490.84375 C 606.988281 491.832031 606.613281 492.8125 606.210938 493.78125 C 605.8125 494.75 605.386719 495.707031 604.9375 496.65625 C 604.492188 497.601562 604.019531 498.539062 603.527344 499.464844 C 603.03125 500.386719 602.515625 501.300781 601.976562 502.199219 C 601.441406 503.097656 600.878906 503.984375 600.296875 504.855469 C 599.714844 505.730469 599.113281 506.585938 598.488281 507.429688 C 597.863281 508.269531 597.21875 509.097656 596.554688 509.90625 C 595.890625 510.71875 595.207031 511.511719 594.503906 512.289062 C 593.800781 513.066406 593.078125 513.824219 592.339844 514.566406 C 591.597656 515.308594 590.839844 516.03125 590.0625 516.734375 C 589.285156 517.441406 588.492188 518.125 587.683594 518.789062 C 586.875 519.453125 586.050781 520.101562 585.207031 520.722656 C 584.367188 521.347656 583.511719 521.953125 582.640625 522.535156 C 581.769531 523.117188 580.882812 523.679688 579.984375 524.21875 C 579.085938 524.757812 578.175781 525.273438 577.253906 525.769531 C 576.328125 526.261719 575.394531 526.734375 574.445312 527.183594 C 573.5 527.628906 572.542969 528.054688 571.574219 528.457031 C 570.605469 528.859375 569.628906 529.234375 568.644531 529.589844 C 567.65625 529.941406 566.664062 530.269531 565.660156 530.574219 C 564.65625 530.878906 563.648438 531.160156 562.632812 531.414062 C 561.617188 531.667969 560.59375 531.898438 559.566406 532.101562 C 558.539062 532.308594 557.507812 532.488281 556.472656 532.640625 C 555.4375 532.792969 554.398438 532.921875 553.355469 533.027344 C 552.3125 533.128906 551.269531 533.207031 550.222656 533.257812 C 549.175781 533.308594 548.128906 533.332031 547.082031 533.335938 C 546.035156 533.332031 544.988281 533.308594 543.941406 533.257812 C 542.894531 533.207031 541.851562 533.128906 540.808594 533.027344 C 539.765625 532.921875 538.726562 532.792969 537.691406 532.640625 C 536.652344 532.488281 535.621094 532.308594 534.59375 532.101562 C 533.566406 531.898438 532.546875 531.667969 531.53125 531.414062 C 530.515625 531.160156 529.503906 530.878906 528.503906 530.574219 C 527.5 530.269531 526.503906 529.941406 525.519531 529.589844 C 524.535156 529.234375 523.554688 528.859375 522.589844 528.457031 C 521.621094 528.054688 520.664062 527.628906 519.714844 527.183594 C 518.769531 526.734375 517.835938 526.261719 516.910156 525.769531 C 515.988281 525.273438 515.074219 524.757812 514.175781 524.21875 C 513.277344 523.679688 512.394531 523.117188 511.523438 522.535156 C 510.652344 521.953125 509.796875 521.347656 508.953125 520.722656 C 508.113281 520.101562 507.289062 519.453125 506.476562 518.789062 C 505.667969 518.125 504.875 517.441406 504.101562 516.734375 C 503.324219 516.03125 502.566406 515.308594 501.824219 514.566406 C 501.082031 513.824219 500.363281 513.066406 499.660156 512.289062 C 498.957031 511.511719 498.269531 510.71875 497.605469 509.90625 C 496.941406 509.097656 496.296875 508.269531 495.675781 507.429688 C 495.050781 506.585938 494.445312 505.730469 493.863281 504.855469 C 493.28125 503.984375 492.722656 503.097656 492.183594 502.199219 C 491.644531 501.300781 491.128906 500.386719 490.636719 499.464844 C 490.140625 498.539062 489.671875 497.601562 489.222656 496.65625 C 488.777344 495.707031 488.351562 494.75 487.949219 493.78125 C 487.550781 492.8125 487.171875 491.832031 486.820312 490.84375 C 486.46875 489.859375 486.136719 488.863281 485.835938 487.859375 C 485.53125 486.855469 485.25 485.84375 484.996094 484.828125 C 484.742188 483.8125 484.511719 482.789062 484.308594 481.757812 C 484.105469 480.730469 483.925781 479.699219 483.769531 478.660156 C 483.617188 477.625 483.488281 476.582031 483.386719 475.539062 C 483.285156 474.496094 483.207031 473.449219 483.15625 472.402344 C 483.105469 471.355469 483.078125 470.308594 483.078125 469.257812 C 483.078125 468.210938 483.105469 467.164062 483.15625 466.113281 C 483.207031 465.066406 483.285156 464.023438 483.386719 462.980469 C 483.488281 461.933594 483.617188 460.894531 483.769531 459.859375 C 483.925781 458.820312 484.105469 457.789062 484.308594 456.757812 C 484.511719 455.730469 484.742188 454.707031 484.996094 453.691406 C 485.25 452.671875 485.53125 451.664062 485.835938 450.660156 C 486.136719 449.65625 486.46875 448.660156 486.820312 447.671875 C 487.171875 446.683594 487.550781 445.707031 487.949219 444.738281 C 488.351562 443.769531 488.777344 442.8125 489.222656 441.863281 C 489.671875 440.914062 490.140625 439.980469 490.636719 439.054688 C 491.128906 438.128906 491.644531 437.21875 492.183594 436.316406 C 492.722656 435.417969 493.28125 434.53125 493.863281 433.660156 C 494.445312 432.789062 495.050781 431.933594 495.675781 431.089844 C 496.296875 430.246094 496.941406 429.421875 497.605469 428.609375 C 498.269531 427.800781 498.957031 427.007812 499.660156 426.230469 C 500.363281 425.453125 501.082031 424.691406 501.824219 423.953125 C 502.566406 423.210938 503.324219 422.488281 504.101562 421.78125 C 504.875 421.078125 505.667969 420.394531 506.476562 419.730469 C 507.289062 419.0625 508.113281 418.417969 508.953125 417.792969 C 509.796875 417.167969 510.652344 416.566406 511.523438 415.984375 C 512.394531 415.398438 513.277344 414.839844 514.175781 414.300781 C 515.074219 413.761719 515.988281 413.246094 516.910156 412.75 C 517.835938 412.253906 518.769531 411.785156 519.714844 411.335938 C 520.664062 410.886719 521.621094 410.464844 522.589844 410.0625 C 523.554688 409.660156 524.535156 409.28125 525.519531 408.929688 C 526.503906 408.578125 527.5 408.246094 528.503906 407.945312 C 529.503906 407.640625 530.515625 407.359375 531.53125 407.105469 C 532.546875 406.851562 533.566406 406.621094 534.59375 406.414062 C 535.621094 406.210938 536.652344 406.03125 537.691406 405.878906 C 538.726562 405.722656 539.765625 405.597656 540.808594 405.492188 C 541.851562 405.390625 542.894531 405.3125 543.941406 405.261719 C 544.988281 405.210938 546.035156 405.183594 547.082031 405.183594 C 548.128906 405.183594 549.175781 405.210938 550.222656 405.261719 C 551.269531 405.3125 552.3125 405.390625 553.355469 405.492188 C 554.398438 405.597656 555.4375 405.722656 556.472656 405.878906 C 557.507812 406.03125 558.539062 406.210938 559.566406 406.414062 C 560.59375 406.621094 561.617188 406.851562 562.632812 407.105469 C 563.648438 407.359375 564.65625 407.640625 565.660156 407.945312 C 566.664062 408.246094 567.65625 408.578125 568.644531 408.929688 C 569.628906 409.28125 570.605469 409.660156 571.574219 410.0625 C 572.542969 410.464844 573.5 410.886719 574.445312 411.335938 C 575.394531 411.785156 576.328125 412.253906 577.253906 412.75 C 578.175781 413.246094 579.085938 413.761719 579.984375 414.300781 C 580.882812 414.839844 581.769531 415.398438 582.640625 415.984375 C 583.511719 416.566406 584.367188 417.167969 585.207031 417.792969 C 586.050781 418.417969 586.875 419.0625 587.683594 419.730469 C 588.492188 420.394531 589.285156 421.078125 590.0625 421.78125 C 590.839844 422.488281 591.597656 423.210938 592.339844 423.953125 C 593.078125 424.691406 593.800781 425.453125 594.503906 426.230469 C 595.207031 427.007812 595.890625 427.800781 596.554688 428.609375 C 597.21875 429.421875 597.863281 430.246094 598.488281 431.089844 C 599.113281 431.933594 599.714844 432.789062 600.296875 433.660156 C 600.878906 434.53125 601.441406 435.417969 601.976562 436.316406 C 602.515625 437.21875 603.03125 438.128906 603.527344 439.054688 C 604.019531 439.980469 604.492188 440.914062 604.9375 441.863281 C 605.386719 442.8125 605.8125 443.769531 606.210938 444.738281 C 606.613281 445.707031 606.988281 446.683594 607.34375 447.671875 C 607.695312 448.660156 608.023438 449.65625 608.328125 450.660156 C 608.632812 451.664062 608.910156 452.671875 609.164062 453.691406 C 609.421875 454.707031 609.648438 455.730469 609.855469 456.757812 C 610.058594 457.789062 610.238281 458.820312 610.390625 459.859375 C 610.546875 460.894531 610.671875 461.933594 610.777344 462.980469 C 610.878906 464.023438 610.957031 465.066406 611.007812 466.113281 C 611.058594 467.164062 611.085938 468.210938 611.085938 469.257812 Z M 611.085938 469.257812 " fill-opacity="1" fill-rule="nonzero"/></g><g clip-path="url(#8850d00614)"><path fill="#f29727" d="M 878.195312 341.0625 C 878.195312 342.109375 878.167969 343.15625 878.117188 344.203125 C 878.066406 345.253906 877.988281 346.296875 877.886719 347.339844 C 877.78125 348.382812 877.65625 349.425781 877.5 350.460938 C 877.347656 351.5 877.167969 352.53125 876.964844 353.5625 C 876.757812 354.589844 876.53125 355.613281 876.277344 356.628906 C 876.019531 357.648438 875.742188 358.65625 875.4375 359.660156 C 875.132812 360.664062 874.804688 361.660156 874.453125 362.648438 C 874.101562 363.632812 873.722656 364.613281 873.320312 365.582031 C 872.921875 366.550781 872.496094 367.507812 872.050781 368.457031 C 871.601562 369.402344 871.128906 370.339844 870.636719 371.265625 C 870.144531 372.191406 869.625 373.101562 869.089844 374 C 868.550781 374.902344 867.988281 375.785156 867.40625 376.660156 C 866.824219 377.53125 866.222656 378.386719 865.597656 379.230469 C 864.976562 380.070312 864.332031 380.898438 863.667969 381.710938 C 863 382.519531 862.316406 383.3125 861.613281 384.089844 C 860.910156 384.867188 860.1875 385.625 859.449219 386.367188 C 858.707031 387.109375 857.949219 387.832031 857.171875 388.535156 C 856.398438 389.242188 855.605469 389.925781 854.792969 390.589844 C 853.984375 391.257812 853.160156 391.902344 852.316406 392.527344 C 851.476562 393.152344 850.621094 393.753906 849.75 394.335938 C 848.878906 394.917969 847.992188 395.480469 847.09375 396.019531 C 846.195312 396.558594 845.285156 397.074219 844.363281 397.570312 C 843.4375 398.0625 842.503906 398.535156 841.554688 398.984375 C 840.609375 399.433594 839.652344 399.855469 838.683594 400.257812 C 837.714844 400.660156 836.738281 401.035156 835.753906 401.390625 C 834.765625 401.742188 833.773438 402.070312 832.769531 402.375 C 831.769531 402.679688 830.757812 402.960938 829.742188 403.214844 C 828.726562 403.46875 827.703125 403.699219 826.675781 403.902344 C 825.648438 404.109375 824.617188 404.289062 823.582031 404.441406 C 822.546875 404.59375 821.507812 404.722656 820.464844 404.828125 C 819.421875 404.929688 818.378906 405.007812 817.332031 405.058594 C 816.285156 405.109375 815.238281 405.136719 814.191406 405.136719 C 813.144531 405.136719 812.097656 405.109375 811.050781 405.058594 C 810.003906 405.007812 808.960938 404.929688 807.917969 404.828125 C 806.875 404.722656 805.835938 404.59375 804.800781 404.441406 C 803.765625 404.289062 802.730469 404.109375 801.703125 403.902344 C 800.675781 403.699219 799.65625 403.46875 798.640625 403.214844 C 797.625 402.960938 796.613281 402.679688 795.613281 402.375 C 794.609375 402.070312 793.617188 401.742188 792.628906 401.390625 C 791.644531 401.035156 790.667969 400.660156 789.699219 400.257812 C 788.730469 399.855469 787.773438 399.433594 786.828125 398.984375 C 785.878906 398.535156 784.945312 398.0625 784.019531 397.570312 C 783.097656 397.074219 782.1875 396.558594 781.289062 396.019531 C 780.390625 395.480469 779.503906 394.917969 778.632812 394.335938 C 777.761719 393.753906 776.90625 393.152344 776.066406 392.527344 C 775.222656 391.902344 774.398438 391.257812 773.589844 390.589844 C 772.777344 389.925781 771.984375 389.242188 771.210938 388.535156 C 770.433594 387.832031 769.675781 387.109375 768.933594 386.367188 C 768.195312 385.625 767.472656 384.867188 766.769531 384.089844 C 766.066406 383.3125 765.382812 382.519531 764.714844 381.710938 C 764.050781 380.898438 763.40625 380.070312 762.785156 379.230469 C 762.160156 378.386719 761.558594 377.53125 760.976562 376.660156 C 760.394531 375.785156 759.832031 374.902344 759.292969 374 C 758.753906 373.101562 758.238281 372.191406 757.746094 371.265625 C 757.253906 370.339844 756.78125 369.402344 756.332031 368.457031 C 755.886719 367.507812 755.460938 366.550781 755.058594 365.582031 C 754.660156 364.613281 754.28125 363.632812 753.929688 362.648438 C 753.578125 361.660156 753.25 360.664062 752.945312 359.660156 C 752.640625 358.65625 752.359375 357.648438 752.105469 356.628906 C 751.851562 355.613281 751.621094 354.589844 751.417969 353.5625 C 751.214844 352.53125 751.035156 351.5 750.882812 350.460938 C 750.726562 349.425781 750.597656 348.382812 750.496094 347.339844 C 750.394531 346.296875 750.316406 345.253906 750.265625 344.203125 C 750.214844 343.15625 750.1875 342.109375 750.1875 341.0625 C 750.1875 340.011719 750.214844 338.964844 750.265625 337.917969 C 750.316406 336.871094 750.394531 335.824219 750.496094 334.78125 C 750.597656 333.738281 750.726562 332.695312 750.882812 331.660156 C 751.035156 330.621094 751.214844 329.589844 751.417969 328.558594 C 751.621094 327.53125 751.851562 326.507812 752.105469 325.492188 C 752.359375 324.472656 752.640625 323.464844 752.945312 322.460938 C 753.25 321.457031 753.578125 320.460938 753.929688 319.472656 C 754.28125 318.488281 754.660156 317.507812 755.058594 316.539062 C 755.460938 315.570312 755.886719 314.613281 756.332031 313.664062 C 756.78125 312.71875 757.253906 311.78125 757.746094 310.855469 C 758.238281 309.929688 758.753906 309.019531 759.292969 308.121094 C 759.832031 307.21875 760.394531 306.335938 760.976562 305.460938 C 761.558594 304.589844 762.160156 303.734375 762.785156 302.890625 C 763.40625 302.050781 764.050781 301.222656 764.714844 300.410156 C 765.382812 299.601562 766.066406 298.808594 766.769531 298.03125 C 767.472656 297.253906 768.195312 296.496094 768.933594 295.753906 C 769.675781 295.011719 770.433594 294.289062 771.210938 293.585938 C 771.984375 292.878906 772.777344 292.195312 773.589844 291.53125 C 774.398438 290.863281 775.222656 290.21875 776.066406 289.59375 C 776.90625 288.96875 777.761719 288.367188 778.632812 287.785156 C 779.503906 287.203125 780.390625 286.640625 781.289062 286.101562 C 782.1875 285.5625 783.097656 285.046875 784.019531 284.550781 C 784.945312 284.058594 785.878906 283.585938 786.828125 283.136719 C 787.773438 282.6875 788.730469 282.265625 789.699219 281.863281 C 790.667969 281.460938 791.644531 281.085938 792.628906 280.730469 C 793.617188 280.378906 794.609375 280.050781 795.613281 279.746094 C 796.613281 279.441406 797.625 279.160156 798.640625 278.90625 C 799.65625 278.652344 800.675781 278.421875 801.703125 278.21875 C 802.730469 278.011719 803.765625 277.832031 804.800781 277.679688 C 805.835938 277.527344 806.875 277.398438 807.917969 277.292969 C 808.960938 277.191406 810.003906 277.113281 811.050781 277.0625 C 812.097656 277.011719 813.144531 276.984375 814.191406 276.984375 C 815.238281 276.984375 816.285156 277.011719 817.332031 277.0625 C 818.378906 277.113281 819.421875 277.191406 820.464844 277.292969 C 821.507812 277.398438 822.546875 277.527344 823.582031 277.679688 C 824.617188 277.832031 825.648438 278.011719 826.675781 278.21875 C 827.703125 278.421875 828.726562 278.652344 829.742188 278.90625 C 830.757812 279.160156 831.769531 279.441406 832.769531 279.746094 C 833.773438 280.050781 834.765625 280.378906 835.753906 280.730469 C 836.738281 281.085938 837.714844 281.460938 838.683594 281.863281 C 839.652344 282.265625 840.609375 282.6875 841.554688 283.136719 C 842.503906 283.585938 843.4375 284.058594 844.363281 284.550781 C 845.285156 285.046875 846.195312 285.5625 847.09375 286.101562 C 847.992188 286.640625 848.878906 287.203125 849.75 287.785156 C 850.621094 288.367188 851.476562 288.96875 852.316406 289.59375 C 853.160156 290.21875 853.984375 290.863281 854.792969 291.53125 C 855.605469 292.195312 856.398438 292.878906 857.171875 293.585938 C 857.949219 294.289062 858.707031 295.011719 859.449219 295.753906 C 860.1875 296.496094 860.910156 297.253906 861.613281 298.03125 C 862.316406 298.808594 863 299.601562 863.667969 300.410156 C 864.332031 301.222656 864.976562 302.050781 865.597656 302.890625 C 866.222656 303.734375 866.824219 304.589844 867.40625 305.460938 C 867.988281 306.335938 868.550781 307.21875 869.089844 308.121094 C 869.625 309.019531 870.144531 309.929688 870.636719 310.855469 C 871.128906 311.78125 871.601562 312.71875 872.050781 313.664062 C 872.496094 314.613281 872.921875 315.570312 873.320312 316.539062 C 873.722656 317.507812 874.101562 318.488281 874.453125 319.472656 C 874.804688 320.460938 875.132812 321.457031 875.4375 322.460938 C 875.742188 323.464844 876.019531 324.472656 876.277344 325.492188 C 876.53125 326.507812 876.761719 327.53125 876.964844 328.558594 C 877.167969 329.589844 877.347656 330.621094 877.5 331.660156 C 877.65625 332.695312 877.78125 333.738281 877.886719 334.78125 C 877.988281 335.824219 878.066406 336.871094 878.117188 337.917969 C 878.167969 338.964844 878.195312 340.011719 878.195312 341.0625 Z M 878.195312 341.0625 " fill-opacity="1" fill-rule="nonzero"/></g><g clip-path="url(#9397c5da65)"><path fill="#f29727" d="M 194.601562 464.65625 C 194.601562 465.78125 194.574219 466.90625 194.519531 468.027344 C 194.464844 469.148438 194.382812 470.269531 194.273438 471.390625 C 194.160156 472.507812 194.023438 473.621094 193.859375 474.734375 C 193.695312 475.847656 193.503906 476.953125 193.285156 478.054688 C 193.066406 479.160156 192.820312 480.253906 192.546875 481.34375 C 192.273438 482.433594 191.972656 483.519531 191.648438 484.59375 C 191.320312 485.667969 190.96875 486.734375 190.59375 487.792969 C 190.214844 488.851562 189.808594 489.902344 189.378906 490.9375 C 188.949219 491.976562 188.496094 493.003906 188.015625 494.019531 C 187.535156 495.035156 187.03125 496.039062 186.5 497.03125 C 185.972656 498.023438 185.417969 499 184.84375 499.964844 C 184.265625 500.929688 183.664062 501.878906 183.039062 502.8125 C 182.417969 503.746094 181.769531 504.664062 181.101562 505.566406 C 180.433594 506.472656 179.742188 507.355469 179.03125 508.226562 C 178.320312 509.09375 177.585938 509.945312 176.832031 510.777344 C 176.078125 511.609375 175.304688 512.425781 174.507812 513.21875 C 173.714844 514.015625 172.902344 514.789062 172.070312 515.542969 C 171.238281 516.296875 170.390625 517.03125 169.523438 517.746094 C 168.652344 518.457031 167.769531 519.148438 166.867188 519.820312 C 165.964844 520.488281 165.046875 521.136719 164.113281 521.761719 C 163.179688 522.382812 162.234375 522.984375 161.269531 523.5625 C 160.308594 524.140625 159.332031 524.695312 158.339844 525.226562 C 157.351562 525.753906 156.347656 526.257812 155.332031 526.738281 C 154.316406 527.21875 153.292969 527.675781 152.253906 528.105469 C 151.21875 528.535156 150.171875 528.941406 149.113281 529.320312 C 148.054688 529.699219 146.992188 530.050781 145.917969 530.375 C 144.84375 530.703125 143.761719 531.003906 142.671875 531.277344 C 141.582031 531.546875 140.488281 531.796875 139.386719 532.015625 C 138.285156 532.234375 137.179688 532.425781 136.070312 532.589844 C 134.957031 532.753906 133.84375 532.894531 132.726562 533.003906 C 131.609375 533.113281 130.492188 533.195312 129.367188 533.25 C 128.246094 533.304688 127.125 533.332031 126.003906 533.332031 C 124.878906 533.332031 123.757812 533.304688 122.636719 533.25 C 121.515625 533.195312 120.398438 533.113281 119.277344 533.003906 C 118.160156 532.894531 117.046875 532.753906 115.9375 532.589844 C 114.828125 532.425781 113.722656 532.234375 112.621094 532.015625 C 111.519531 531.796875 110.425781 531.550781 109.335938 531.277344 C 108.246094 531.003906 107.164062 530.703125 106.089844 530.375 C 105.015625 530.050781 103.949219 529.699219 102.894531 529.320312 C 101.835938 528.941406 100.789062 528.535156 99.75 528.105469 C 98.714844 527.675781 97.6875 527.21875 96.671875 526.738281 C 95.660156 526.257812 94.65625 525.753906 93.664062 525.226562 C 92.675781 524.695312 91.699219 524.140625 90.734375 523.5625 C 89.773438 522.984375 88.824219 522.382812 87.890625 521.761719 C 86.957031 521.136719 86.039062 520.488281 85.140625 519.820312 C 84.238281 519.148438 83.351562 518.457031 82.484375 517.746094 C 81.617188 517.03125 80.765625 516.296875 79.933594 515.542969 C 79.101562 514.789062 78.289062 514.015625 77.496094 513.21875 C 76.703125 512.425781 75.929688 511.609375 75.175781 510.777344 C 74.421875 509.945312 73.6875 509.09375 72.976562 508.226562 C 72.261719 507.355469 71.574219 506.472656 70.902344 505.566406 C 70.234375 504.664062 69.589844 503.746094 68.964844 502.8125 C 68.339844 501.878906 67.742188 500.929688 67.164062 499.964844 C 66.585938 499 66.035156 498.023438 65.503906 497.03125 C 64.976562 496.039062 64.46875 495.035156 63.992188 494.019531 C 63.511719 493.003906 63.054688 491.976562 62.625 490.9375 C 62.195312 489.902344 61.792969 488.851562 61.414062 487.792969 C 61.035156 486.734375 60.683594 485.667969 60.359375 484.59375 C 60.03125 483.519531 59.734375 482.433594 59.460938 481.34375 C 59.1875 480.253906 58.941406 479.160156 58.722656 478.054688 C 58.503906 476.953125 58.3125 475.847656 58.148438 474.734375 C 57.980469 473.621094 57.84375 472.507812 57.734375 471.390625 C 57.625 470.269531 57.542969 469.148438 57.488281 468.027344 C 57.433594 466.90625 57.40625 465.78125 57.40625 464.65625 C 57.40625 463.535156 57.433594 462.410156 57.488281 461.289062 C 57.542969 460.164062 57.625 459.042969 57.734375 457.925781 C 57.84375 456.808594 57.980469 455.691406 58.148438 454.582031 C 58.3125 453.46875 58.503906 452.363281 58.722656 451.257812 C 58.941406 450.15625 59.1875 449.0625 59.460938 447.972656 C 59.734375 446.878906 60.03125 445.796875 60.359375 444.722656 C 60.683594 443.648438 61.035156 442.578125 61.414062 441.519531 C 61.792969 440.464844 62.195312 439.414062 62.625 438.375 C 63.054688 437.339844 63.511719 436.3125 63.992188 435.292969 C 64.46875 434.277344 64.976562 433.273438 65.503906 432.285156 C 66.035156 431.292969 66.585938 430.316406 67.164062 429.351562 C 67.742188 428.386719 68.339844 427.4375 68.964844 426.503906 C 69.589844 425.570312 70.234375 424.648438 70.902344 423.746094 C 71.574219 422.84375 72.261719 421.957031 72.976562 421.089844 C 73.6875 420.222656 74.421875 419.371094 75.175781 418.539062 C 75.929688 417.703125 76.703125 416.890625 77.496094 416.097656 C 78.289062 415.300781 79.101562 414.527344 79.933594 413.773438 C 80.765625 413.015625 81.617188 412.285156 82.484375 411.570312 C 83.351562 410.855469 84.238281 410.167969 85.140625 409.496094 C 86.039062 408.828125 86.957031 408.179688 87.890625 407.554688 C 88.824219 406.929688 89.773438 406.332031 90.734375 405.753906 C 91.699219 405.175781 92.675781 404.621094 93.664062 404.089844 C 94.65625 403.5625 95.660156 403.054688 96.671875 402.574219 C 97.6875 402.09375 98.714844 401.640625 99.75 401.210938 C 100.789062 400.78125 101.835938 400.375 102.894531 399.996094 C 103.949219 399.617188 105.015625 399.265625 106.089844 398.9375 C 107.164062 398.613281 108.246094 398.3125 109.335938 398.039062 C 110.425781 397.765625 111.519531 397.519531 112.621094 397.300781 C 113.722656 397.082031 114.828125 396.890625 115.9375 396.726562 C 117.046875 396.558594 118.160156 396.421875 119.277344 396.3125 C 120.398438 396.203125 121.515625 396.121094 122.636719 396.066406 C 123.757812 396.007812 124.878906 395.980469 126.003906 395.980469 C 127.125 395.980469 128.246094 396.007812 129.367188 396.066406 C 130.492188 396.121094 131.609375 396.203125 132.726562 396.3125 C 133.84375 396.421875 134.957031 396.558594 136.070312 396.726562 C 137.179688 396.890625 138.285156 397.082031 139.386719 397.300781 C 140.488281 397.519531 141.582031 397.765625 142.671875 398.039062 C 143.761719 398.3125 144.84375 398.613281 145.917969 398.9375 C 146.992188 399.265625 148.054688 399.617188 149.113281 399.996094 C 150.171875 400.375 151.21875 400.78125 152.253906 401.210938 C 153.292969 401.640625 154.316406 402.09375 155.332031 402.574219 C 156.347656 403.054688 157.351562 403.5625 158.339844 404.089844 C 159.332031 404.621094 160.308594 405.175781 161.269531 405.753906 C 162.234375 406.332031 163.179688 406.929688 164.113281 407.554688 C 165.046875 408.179688 165.964844 408.828125 166.867188 409.496094 C 167.769531 410.167969 168.652344 410.855469 169.523438 411.570312 C 170.390625 412.285156 171.238281 413.015625 172.070312 413.773438 C 172.902344 414.527344 173.714844 415.300781 174.507812 416.097656 C 175.304688 416.890625 176.078125 417.703125 176.832031 418.539062 C 177.585938 419.371094 178.320312 420.222656 179.03125 421.089844 C 179.742188 421.957031 180.433594 422.84375 181.101562 423.746094 C 181.769531 424.648438 182.417969 425.570312 183.039062 426.503906 C 183.664062 427.4375 184.265625 428.386719 184.84375 429.351562 C 185.417969 430.316406 185.972656 431.292969 186.5 432.285156 C 187.03125 433.277344 187.535156 434.277344 188.015625 435.292969 C 188.496094 436.3125 188.949219 437.339844 189.378906 438.375 C 189.808594 439.414062 190.214844 440.464844 190.59375 441.523438 C 190.96875 442.578125 191.320312 443.648438 191.648438 444.722656 C 191.972656 445.796875 192.273438 446.878906 192.546875 447.972656 C 192.820312 449.0625 193.066406 450.15625 193.285156 451.257812 C 193.503906 452.363281 193.695312 453.46875 193.859375 454.582031 C 194.023438 455.691406 194.160156 456.808594 194.273438 457.925781 C 194.382812 459.042969 194.464844 460.164062 194.519531 461.289062 C 194.574219 462.410156 194.601562 463.535156 194.601562 464.65625 Z M 194.601562 464.65625 " fill-opacity="1" fill-rule="nonzero"/></g></svg>