<svg xmlns="http://www.w3.org/2000/svg" xmlns:xlink="http://www.w3.org/1999/xlink" width="1920" zoomAndPan="magnify" viewBox="0 0 1440 809.999993" height="1080" preserveAspectRatio="xMidYMid meet" version="1.0"><defs><clipPath id="1038a6b144"><path d="M 630 0 L 1440 0 L 1440 810 L 630 810 Z M 630 0 " clip-rule="nonzero"/></clipPath><clipPath id="1beaf697a0"><path d="M 1359.746094 793.953125 L 1354.605469 799.09375 L 1364.882812 809.375 L 1378.359375 809.375 L 1368.078125 799.09375 L 1378.359375 788.8125 L 1364.886719 788.8125 Z M 1303.960938 789.355469 L 1316.722656 789.355469 L 1306.984375 799.09375 L 1316.722656 808.832031 L 1303.960938 808.832031 L 1294.222656 799.09375 L 1299.089844 794.222656 Z M 1243.035156 789.898438 L 1255.089844 789.898438 L 1245.894531 799.09375 L 1255.09375 808.289062 L 1243.039062 808.289062 L 1233.839844 799.09375 Z M 1182.113281 790.441406 L 1193.457031 790.441406 L 1189.128906 794.769531 L 1184.800781 799.09375 L 1193.457031 807.75 L 1182.113281 807.75 L 1173.457031 799.09375 L 1177.785156 794.769531 Z M 1121.1875 790.980469 L 1131.824219 790.980469 L 1123.710938 799.09375 L 1131.824219 807.207031 L 1121.191406 807.207031 L 1113.078125 799.09375 L 1117.132812 795.039062 Z M 1060.265625 791.523438 L 1070.1875 791.523438 L 1066.402344 795.308594 L 1062.613281 799.09375 L 1070.1875 806.664062 L 1060.261719 806.664062 L 1052.691406 799.09375 L 1056.476562 795.308594 Z M 999.339844 792.0625 L 1008.554688 792.0625 L 1005.039062 795.578125 L 1001.527344 799.09375 L 1008.554688 806.121094 L 999.339844 806.121094 L 992.308594 799.09375 Z M 938.414062 792.605469 L 946.917969 792.605469 L 943.675781 795.851562 L 940.429688 799.09375 L 946.917969 805.582031 L 938.414062 805.582031 L 931.925781 799.09375 L 935.171875 795.851562 Z M 877.492188 793.148438 L 885.285156 793.148438 L 879.339844 799.09375 L 885.285156 805.039062 L 877.492188 805.039062 L 871.542969 799.09375 L 874.515625 796.121094 Z M 816.566406 793.691406 L 823.652344 793.691406 L 820.949219 796.390625 L 818.246094 799.09375 L 823.652344 804.5 L 816.566406 804.5 L 811.164062 799.09375 L 813.863281 796.390625 Z M 755.640625 794.230469 L 762.015625 794.230469 L 757.152344 799.09375 L 762.015625 803.957031 L 755.640625 803.957031 L 750.777344 799.09375 L 753.210938 796.664062 Z M 694.71875 794.773438 L 700.382812 794.773438 L 696.0625 799.09375 L 700.382812 803.414062 L 694.71875 803.414062 L 690.398438 799.09375 Z M 1425.808594 788.273438 L 1439.992188 788.273438 L 1429.171875 799.09375 L 1439.992188 809.914062 L 1425.808594 809.914062 L 1414.988281 799.09375 Z M 1429.378906 7.496094 L 1426.902344 7.496094 L 1423.125 3.71875 L 1426.90625 -0.0625 L 1431.859375 -0.0625 L 1428.078125 3.71875 L 1431.855469 7.496094 Z M 1368.371094 7.496094 L 1365.894531 7.496094 L 1362.117188 3.71875 L 1365.898438 -0.0625 L 1370.851562 -0.0625 L 1367.070312 3.71875 L 1370.847656 7.496094 Z M 1307.363281 7.496094 L 1304.886719 7.496094 L 1301.105469 3.71875 L 1304.886719 -0.0625 L 1309.839844 -0.0625 L 1306.058594 3.71875 L 1309.839844 7.496094 Z M 1246.355469 7.496094 L 1243.878906 7.496094 L 1240.097656 3.71875 L 1243.878906 -0.0625 L 1248.832031 -0.0625 L 1245.050781 3.71875 L 1248.832031 7.496094 Z M 1185.347656 7.496094 L 1182.871094 7.496094 L 1179.089844 3.71875 L 1182.871094 -0.0625 L 1187.824219 -0.0625 L 1184.042969 3.71875 L 1187.824219 7.496094 Z M 1124.339844 7.496094 L 1121.863281 7.496094 L 1118.082031 3.71875 L 1121.863281 -0.0625 L 1126.816406 -0.0625 L 1123.035156 3.71875 L 1126.816406 7.496094 Z M 1063.332031 7.496094 L 1060.855469 7.496094 L 1057.074219 3.71875 L 1060.855469 -0.0625 L 1065.808594 -0.0625 L 1062.027344 3.71875 L 1065.808594 7.496094 Z M 1002.320312 7.496094 L 999.84375 7.496094 L 996.066406 3.71875 L 999.847656 -0.0625 L 1004.800781 -0.0625 L 1001.019531 3.71875 L 1004.796875 7.496094 Z M 941.3125 7.496094 L 938.835938 7.496094 L 935.058594 3.71875 L 938.839844 -0.0625 L 943.792969 -0.0625 L 940.011719 3.71875 L 943.789062 7.496094 Z M 880.304688 7.496094 L 877.828125 7.496094 L 874.046875 3.71875 L 877.828125 -0.0625 L 882.78125 -0.0625 L 879 3.71875 L 882.78125 7.496094 Z M 819.296875 7.496094 L 816.820312 7.496094 L 813.039062 3.71875 L 816.820312 -0.0625 L 821.773438 -0.0625 L 817.992188 3.71875 L 821.773438 7.496094 Z M 758.289062 7.496094 L 755.8125 7.496094 L 752.03125 3.71875 L 755.8125 -0.0625 L 760.765625 -0.0625 L 756.984375 3.71875 L 760.765625 7.496094 Z M 697.28125 7.496094 L 694.804688 7.496094 L 691.023438 3.71875 L 694.804688 -0.0625 L 699.757812 -0.0625 L 695.976562 3.71875 L 699.757812 7.496094 Z M 636.269531 7.496094 L 633.792969 7.496094 L 630.015625 3.71875 L 633.796875 -0.0625 L 638.75 -0.0625 L 634.96875 3.71875 L 638.746094 7.496094 Z M 1429.648438 69.222656 L 1426.816406 69.222656 L 1422.496094 64.898438 L 1426.816406 60.578125 L 1432.480469 60.578125 L 1428.160156 64.898438 L 1432.484375 69.222656 Z M 1368.621094 69.179688 L 1365.816406 69.179688 L 1361.535156 64.898438 L 1363.675781 62.761719 L 1365.816406 60.621094 L 1371.425781 60.621094 L 1369.285156 62.761719 L 1367.144531 64.898438 L 1371.425781 69.179688 Z M 1307.59375 69.136719 L 1304.816406 69.136719 L 1300.578125 64.898438 L 1304.816406 60.660156 L 1310.371094 60.660156 L 1306.132812 64.898438 L 1310.371094 69.136719 Z M 1246.5625 69.097656 L 1243.8125 69.097656 L 1239.617188 64.898438 L 1243.8125 60.703125 L 1249.3125 60.703125 L 1245.117188 64.898438 L 1249.3125 69.097656 Z M 1185.535156 69.054688 L 1182.8125 69.054688 L 1178.65625 64.898438 L 1182.8125 60.742188 L 1188.257812 60.742188 L 1184.101562 64.898438 L 1188.257812 69.054688 Z M 1124.503906 69.015625 L 1121.8125 69.015625 L 1117.699219 64.902344 L 1119.753906 62.84375 L 1121.8125 60.785156 L 1127.203125 60.785156 L 1123.085938 64.902344 L 1127.199219 69.015625 Z M 1063.476562 68.972656 L 1060.808594 68.972656 L 1056.734375 64.898438 L 1058.773438 62.863281 L 1060.808594 60.828125 L 1066.148438 60.828125 L 1064.109375 62.863281 L 1062.074219 64.898438 L 1066.144531 68.972656 Z M 1002.445312 68.929688 L 999.804688 68.929688 L 995.773438 64.898438 L 997.792969 62.886719 L 999.804688 60.871094 L 1005.089844 60.871094 L 1003.074219 62.886719 L 1001.058594 64.898438 L 1005.089844 68.929688 Z M 941.417969 68.890625 L 938.804688 68.890625 L 934.816406 64.898438 L 938.800781 60.914062 L 944.03125 60.914062 L 942.035156 62.90625 L 940.042969 64.898438 L 944.03125 68.890625 Z M 880.386719 68.847656 L 877.800781 68.847656 L 873.855469 64.902344 L 877.800781 60.957031 L 882.976562 60.957031 L 881.003906 62.929688 L 879.027344 64.902344 L 882.976562 68.847656 Z M 819.359375 68.804688 L 816.800781 68.804688 L 812.894531 64.898438 L 814.847656 62.949219 L 816.800781 60.996094 L 821.917969 60.996094 L 819.964844 62.949219 L 818.011719 64.898438 L 821.917969 68.804688 Z M 758.328125 68.761719 L 755.796875 68.761719 L 751.933594 64.898438 L 753.867188 62.96875 L 755.796875 61.035156 L 760.863281 61.035156 L 758.929688 62.96875 L 756.996094 64.898438 L 760.863281 68.761719 Z M 697.300781 68.722656 L 694.796875 68.722656 L 690.972656 64.898438 L 692.886719 62.988281 L 694.796875 61.078125 L 699.804688 61.078125 L 697.894531 62.988281 L 695.980469 64.898438 L 699.804688 68.722656 Z M 633.792969 61.121094 L 638.746094 61.121094 L 636.855469 63.011719 L 634.96875 64.902344 L 638.746094 68.679688 L 633.792969 68.679688 L 630.015625 64.902344 L 631.902344 63.011719 Z M 1429.921875 130.945312 L 1426.734375 130.945312 L 1421.871094 126.082031 L 1426.734375 121.21875 L 1433.109375 121.21875 L 1430.675781 123.648438 L 1428.246094 126.082031 L 1433.109375 130.945312 Z M 1368.871094 130.863281 L 1365.738281 130.863281 L 1360.960938 126.082031 L 1365.742188 121.300781 L 1372.007812 121.300781 L 1367.226562 126.082031 L 1372.003906 130.863281 Z M 1307.820312 130.777344 L 1304.742188 130.777344 L 1300.046875 126.082031 L 1304.742188 121.386719 L 1310.898438 121.386719 L 1306.203125 126.082031 L 1310.898438 130.777344 Z M 1246.773438 130.695312 L 1243.75 130.695312 L 1239.136719 126.082031 L 1241.441406 123.777344 L 1243.75 121.472656 L 1249.796875 121.472656 L 1247.488281 123.777344 L 1245.183594 126.082031 L 1249.796875 130.695312 Z M 1185.722656 130.613281 L 1182.753906 130.613281 L 1178.222656 126.082031 L 1182.753906 121.550781 L 1188.691406 121.550781 L 1184.160156 126.082031 L 1188.691406 130.613281 Z M 1124.671875 130.53125 L 1121.757812 130.53125 L 1117.3125 126.082031 L 1121.757812 121.636719 L 1127.589844 121.636719 L 1125.363281 123.859375 L 1123.140625 126.082031 L 1127.585938 130.53125 Z M 1063.621094 130.445312 L 1060.761719 130.445312 L 1056.398438 126.082031 L 1058.578125 123.902344 L 1060.757812 121.71875 L 1066.480469 121.71875 L 1062.117188 126.082031 L 1066.480469 130.445312 Z M 1002.570312 130.363281 L 999.765625 130.363281 L 995.488281 126.082031 L 999.765625 121.804688 L 1005.375 121.804688 L 1001.097656 126.082031 L 1005.375 130.363281 Z M 941.519531 130.277344 L 938.769531 130.277344 L 934.574219 126.082031 L 938.769531 121.886719 L 944.269531 121.886719 L 940.074219 126.082031 L 944.269531 130.277344 Z M 880.472656 130.195312 L 877.777344 130.195312 L 873.664062 126.082031 L 877.777344 121.96875 L 883.167969 121.96875 L 879.054688 126.082031 L 883.164062 130.195312 Z M 819.421875 130.113281 L 816.78125 130.113281 L 812.75 126.082031 L 814.761719 124.066406 L 816.777344 122.054688 L 822.0625 122.054688 L 820.046875 124.066406 L 818.03125 126.082031 L 822.0625 130.113281 Z M 758.371094 130.03125 L 755.785156 130.03125 L 751.839844 126.082031 L 755.785156 122.136719 L 760.957031 122.136719 L 757.011719 126.082031 L 760.957031 130.03125 Z M 697.320312 129.945312 L 694.789062 129.945312 L 690.925781 126.082031 L 694.789062 122.21875 L 699.851562 122.21875 L 695.988281 126.082031 L 699.851562 129.945312 Z M 633.792969 122.300781 L 638.746094 122.300781 L 636.855469 124.191406 L 634.96875 126.082031 L 638.746094 129.863281 L 633.792969 129.863281 L 630.015625 126.082031 L 631.902344 124.191406 Z M 1430.191406 192.671875 L 1426.652344 192.671875 L 1421.246094 187.265625 L 1426.648438 181.863281 L 1433.734375 181.863281 L 1431.03125 184.5625 L 1428.332031 187.265625 L 1433.734375 192.671875 Z M 1369.121094 192.546875 L 1365.660156 192.546875 L 1360.382812 187.265625 L 1363.023438 184.625 L 1365.660156 181.984375 L 1372.582031 181.984375 L 1367.300781 187.265625 L 1372.582031 192.546875 Z M 1308.050781 192.421875 L 1304.671875 192.421875 L 1299.515625 187.265625 L 1304.671875 182.109375 L 1311.429688 182.109375 L 1306.273438 187.265625 L 1311.429688 192.421875 Z M 1246.980469 192.296875 L 1243.683594 192.296875 L 1238.652344 187.265625 L 1241.167969 184.75 L 1243.683594 182.238281 L 1250.273438 182.238281 L 1245.246094 187.265625 L 1250.277344 192.296875 Z M 1185.910156 192.171875 L 1182.695312 192.171875 L 1177.789062 187.265625 L 1182.695312 182.359375 L 1189.125 182.359375 L 1184.21875 187.265625 L 1189.125 192.171875 Z M 1124.839844 192.046875 L 1121.707031 192.046875 L 1116.925781 187.265625 L 1121.707031 182.484375 L 1127.972656 182.484375 L 1123.191406 187.265625 L 1127.972656 192.046875 Z M 1063.765625 191.921875 L 1060.714844 191.921875 L 1056.0625 187.265625 L 1060.714844 182.613281 L 1066.816406 182.613281 L 1062.164062 187.265625 L 1066.816406 191.921875 Z M 1002.695312 191.796875 L 999.726562 191.796875 L 995.199219 187.265625 L 997.464844 185 L 999.726562 182.734375 L 1005.664062 182.734375 L 1001.132812 187.265625 L 1005.664062 191.796875 Z M 941.625 191.671875 L 938.738281 191.671875 L 934.332031 187.265625 L 938.738281 182.859375 L 944.511719 182.859375 L 942.308594 185.0625 L 940.109375 187.265625 L 944.511719 191.671875 Z M 880.554688 191.546875 L 877.75 191.546875 L 873.472656 187.265625 L 875.609375 185.125 L 877.75 182.988281 L 883.359375 182.988281 L 881.21875 185.125 L 879.082031 187.265625 L 883.359375 191.546875 Z M 819.484375 191.417969 L 816.761719 191.417969 L 812.605469 187.265625 L 816.761719 183.109375 L 822.207031 183.109375 L 818.050781 187.265625 L 822.207031 191.417969 Z M 758.414062 191.296875 L 755.769531 191.296875 L 751.742188 187.265625 L 753.753906 185.25 L 755.769531 183.238281 L 761.050781 183.238281 L 757.023438 187.265625 L 761.054688 191.296875 Z M 697.34375 191.171875 L 694.78125 191.171875 L 690.878906 187.265625 L 692.832031 185.3125 L 694.78125 183.359375 L 699.902344 183.359375 L 695.996094 187.265625 L 699.902344 191.171875 Z M 633.792969 183.484375 L 638.746094 183.484375 L 636.855469 185.375 L 634.96875 187.265625 L 638.746094 191.046875 L 633.792969 191.046875 L 630.015625 187.265625 L 631.902344 185.375 Z M 1430.464844 254.394531 L 1426.566406 254.394531 L 1420.621094 248.449219 L 1423.59375 245.476562 L 1426.566406 242.5 L 1434.359375 242.5 L 1431.386719 245.476562 L 1428.414062 248.449219 L 1434.359375 254.394531 Z M 1369.371094 254.226562 L 1365.585938 254.226562 L 1359.804688 248.449219 L 1365.585938 242.667969 L 1373.160156 242.667969 L 1367.378906 248.449219 L 1373.160156 254.226562 Z M 1308.28125 254.0625 L 1304.601562 254.0625 L 1298.988281 248.449219 L 1304.601562 242.835938 L 1311.957031 242.835938 L 1306.34375 248.449219 L 1311.957031 254.0625 Z M 1247.1875 253.894531 L 1243.617188 253.894531 L 1238.171875 248.449219 L 1240.894531 245.722656 L 1243.621094 243 L 1250.757812 243 L 1248.035156 245.722656 L 1245.3125 248.449219 L 1250.757812 253.894531 Z M 1186.097656 253.726562 L 1182.636719 253.726562 L 1177.359375 248.449219 L 1179.996094 245.808594 L 1182.636719 243.167969 L 1189.554688 243.167969 L 1186.917969 245.808594 L 1184.277344 248.449219 L 1189.554688 253.726562 Z M 1125.003906 253.5625 L 1121.65625 253.5625 L 1116.542969 248.449219 L 1119.097656 245.890625 L 1121.65625 243.332031 L 1128.359375 243.332031 L 1123.242188 248.449219 L 1128.355469 253.5625 Z M 1063.914062 253.394531 L 1060.671875 253.394531 L 1055.726562 248.449219 L 1058.199219 245.976562 L 1060.671875 243.5 L 1067.152344 243.5 L 1064.679688 245.976562 L 1062.207031 248.449219 L 1067.152344 253.394531 Z M 1002.820312 253.226562 L 999.6875 253.226562 L 994.910156 248.449219 L 999.691406 243.667969 L 1005.957031 243.667969 L 1001.175781 248.449219 L 1005.953125 253.226562 Z M 941.730469 253.0625 L 938.707031 253.0625 L 934.09375 248.449219 L 938.707031 243.835938 L 944.753906 243.835938 L 942.445312 246.140625 L 940.140625 248.449219 L 944.753906 253.0625 Z M 880.636719 252.894531 L 877.722656 252.894531 L 873.277344 248.449219 L 875.5 246.222656 L 877.722656 244 L 883.554688 244 L 879.105469 248.449219 L 883.550781 252.894531 Z M 819.546875 252.730469 L 816.742188 252.730469 L 812.460938 248.449219 L 814.601562 246.308594 L 816.742188 244.171875 L 822.351562 244.171875 L 820.210938 246.308594 L 818.070312 248.449219 L 822.351562 252.730469 Z M 758.457031 252.5625 L 755.761719 252.5625 L 751.648438 248.449219 L 755.761719 244.335938 L 761.152344 244.335938 L 757.039062 248.449219 L 761.148438 252.5625 Z M 697.363281 252.394531 L 694.777344 252.394531 L 690.828125 248.449219 L 692.804688 246.476562 L 694.777344 244.503906 L 699.949219 244.503906 L 696.003906 248.449219 L 699.949219 252.394531 Z M 633.792969 244.667969 L 638.746094 244.667969 L 636.855469 246.558594 L 634.96875 248.449219 L 638.746094 252.230469 L 633.792969 252.230469 L 630.015625 248.449219 L 631.902344 246.558594 Z M 1430.734375 316.121094 L 1426.484375 316.121094 L 1419.996094 309.632812 L 1423.238281 306.386719 L 1426.484375 303.140625 L 1434.988281 303.140625 L 1431.742188 306.386719 L 1428.5 309.632812 L 1434.988281 316.121094 Z M 1369.621094 315.910156 L 1365.503906 315.910156 L 1359.226562 309.632812 L 1362.363281 306.492188 L 1365.503906 303.351562 L 1373.738281 303.351562 L 1367.457031 309.632812 L 1373.738281 315.910156 Z M 1308.507812 315.703125 L 1304.53125 315.703125 L 1298.457031 309.628906 L 1304.527344 303.558594 L 1312.488281 303.558594 L 1306.417969 309.628906 L 1312.488281 315.703125 Z M 1247.394531 315.496094 L 1243.554688 315.496094 L 1237.6875 309.628906 L 1240.621094 306.699219 L 1243.554688 303.765625 L 1251.238281 303.765625 L 1248.308594 306.699219 L 1245.375 309.628906 L 1251.238281 315.496094 Z M 1186.285156 315.285156 L 1182.578125 315.285156 L 1176.925781 309.632812 L 1179.75 306.804688 L 1182.578125 303.976562 L 1189.988281 303.976562 L 1187.164062 306.804688 L 1184.335938 309.632812 L 1189.988281 315.285156 Z M 1125.171875 315.078125 L 1121.601562 315.078125 L 1116.15625 309.632812 L 1118.878906 306.90625 L 1121.601562 304.183594 L 1128.742188 304.183594 L 1123.292969 309.632812 L 1128.742188 315.078125 Z M 1064.058594 314.867188 L 1060.625 314.867188 L 1055.386719 309.628906 L 1058.007812 307.011719 L 1060.625 304.390625 L 1067.492188 304.390625 L 1062.253906 309.628906 L 1067.492188 314.867188 Z M 1002.945312 314.660156 L 999.652344 314.660156 L 994.621094 309.628906 L 999.648438 304.601562 L 1006.242188 304.601562 L 1003.730469 307.117188 L 1001.214844 309.628906 L 1006.246094 314.660156 Z M 941.832031 314.453125 L 938.671875 314.453125 L 933.851562 309.632812 L 938.675781 304.808594 L 944.996094 304.808594 L 942.585938 307.222656 L 940.171875 309.632812 L 944.996094 314.453125 Z M 880.722656 314.246094 L 877.699219 314.246094 L 873.085938 309.632812 L 875.390625 307.324219 L 877.699219 305.019531 L 883.746094 305.019531 L 881.4375 307.324219 L 879.132812 309.632812 L 883.746094 314.246094 Z M 819.609375 314.035156 L 816.722656 314.035156 L 812.316406 309.632812 L 816.722656 305.226562 L 822.496094 305.226562 L 818.089844 309.632812 L 822.496094 314.035156 Z M 758.496094 313.828125 L 755.746094 313.828125 L 751.550781 309.628906 L 755.746094 305.433594 L 761.246094 305.433594 L 757.050781 309.628906 L 761.246094 313.828125 Z M 697.382812 313.621094 L 694.769531 313.621094 L 690.78125 309.628906 L 694.765625 305.644531 L 699.996094 305.644531 L 698 307.636719 L 696.007812 309.628906 L 699.996094 313.621094 Z M 633.792969 305.851562 L 638.746094 305.851562 L 636.855469 307.742188 L 634.96875 309.632812 L 638.746094 313.410156 L 633.792969 313.410156 L 630.015625 309.632812 L 631.902344 307.742188 Z M 1431.003906 377.84375 L 1426.398438 377.84375 L 1419.367188 370.8125 L 1422.882812 367.300781 L 1426.398438 363.785156 L 1435.613281 363.785156 L 1432.097656 367.300781 L 1428.582031 370.8125 L 1435.613281 377.84375 Z M 1369.871094 377.59375 L 1365.429688 377.59375 L 1358.648438 370.8125 L 1362.039062 367.425781 L 1365.425781 364.035156 L 1374.3125 364.035156 L 1370.925781 367.425781 L 1367.535156 370.8125 L 1374.316406 377.59375 Z M 1308.738281 377.34375 L 1304.457031 377.34375 L 1297.929688 370.8125 L 1301.195312 367.550781 L 1304.460938 364.285156 L 1313.019531 364.285156 L 1309.753906 367.550781 L 1306.488281 370.8125 L 1313.015625 377.34375 Z M 1247.605469 377.09375 L 1243.488281 377.09375 L 1237.210938 370.8125 L 1243.488281 364.535156 L 1251.722656 364.535156 L 1248.582031 367.675781 L 1245.441406 370.8125 L 1251.722656 377.09375 Z M 1186.472656 376.84375 L 1182.519531 376.84375 L 1176.492188 370.8125 L 1179.503906 367.796875 L 1182.519531 364.785156 L 1190.421875 364.785156 L 1187.40625 367.796875 L 1184.394531 370.8125 L 1190.421875 376.84375 Z M 1125.335938 376.59375 L 1121.550781 376.59375 L 1115.769531 370.8125 L 1118.660156 367.925781 L 1121.550781 365.035156 L 1129.128906 365.035156 L 1126.234375 367.925781 L 1123.347656 370.8125 L 1129.128906 376.59375 Z M 1064.203125 376.34375 L 1060.582031 376.34375 L 1055.050781 370.8125 L 1057.816406 368.050781 L 1060.582031 365.285156 L 1067.828125 365.285156 L 1062.300781 370.8125 L 1067.828125 376.34375 Z M 1003.070312 376.09375 L 999.609375 376.09375 L 994.332031 370.8125 L 996.972656 368.175781 L 999.609375 365.535156 L 1006.53125 365.535156 L 1003.890625 368.175781 L 1001.25 370.8125 L 1006.53125 376.09375 Z M 941.9375 375.84375 L 938.640625 375.84375 L 933.613281 370.8125 L 938.640625 365.785156 L 945.234375 365.785156 L 942.71875 368.300781 L 940.203125 370.8125 L 945.234375 375.84375 Z M 880.804688 375.59375 L 877.671875 375.59375 L 872.890625 370.8125 L 877.671875 366.03125 L 883.9375 366.03125 L 879.15625 370.8125 L 883.9375 375.59375 Z M 819.671875 375.34375 L 816.703125 375.34375 L 812.171875 370.8125 L 814.4375 368.550781 L 816.703125 366.285156 L 822.640625 366.285156 L 820.375 368.550781 L 818.109375 370.8125 L 822.640625 375.34375 Z M 758.539062 375.09375 L 755.734375 375.09375 L 751.453125 370.8125 L 753.59375 368.675781 L 755.734375 366.535156 L 761.34375 366.535156 L 759.203125 368.675781 L 757.0625 370.8125 L 761.34375 375.09375 Z M 697.40625 374.84375 L 694.765625 374.84375 L 690.734375 370.8125 L 694.761719 366.785156 L 700.046875 366.785156 L 698.03125 368.800781 L 696.015625 370.8125 L 700.046875 374.84375 Z M 633.792969 367.035156 L 638.746094 367.035156 L 636.855469 368.925781 L 634.96875 370.816406 L 638.746094 374.59375 L 633.792969 374.59375 L 630.015625 370.816406 L 631.902344 368.925781 Z M 1431.277344 439.570312 L 1426.3125 439.570312 L 1418.742188 432 L 1426.316406 424.425781 L 1436.238281 424.425781 L 1432.453125 428.210938 L 1428.667969 432 L 1436.238281 439.570312 Z M 1370.121094 439.277344 L 1365.351562 439.277344 L 1358.070312 431.996094 L 1365.351562 424.714844 L 1374.890625 424.714844 L 1371.253906 428.355469 L 1367.613281 431.996094 L 1374.890625 439.277344 Z M 1308.96875 438.984375 L 1304.386719 438.984375 L 1297.398438 431.996094 L 1300.894531 428.503906 L 1304.386719 425.007812 L 1313.546875 425.007812 L 1310.054688 428.503906 L 1306.558594 431.996094 L 1313.546875 438.984375 Z M 1247.8125 438.695312 L 1243.425781 438.695312 L 1236.730469 432 L 1240.078125 428.648438 L 1243.425781 425.300781 L 1252.203125 425.300781 L 1248.851562 428.648438 L 1245.503906 432 L 1252.203125 438.695312 Z M 1186.660156 438.402344 L 1182.460938 438.402344 L 1176.054688 431.996094 L 1179.257812 428.792969 L 1182.460938 425.59375 L 1190.855469 425.59375 L 1187.652344 428.792969 L 1184.449219 431.996094 L 1190.855469 438.402344 Z M 1125.503906 438.109375 L 1121.496094 438.109375 L 1115.382812 431.996094 L 1118.441406 428.941406 L 1121.496094 425.882812 L 1129.507812 425.882812 L 1126.453125 428.941406 L 1123.398438 431.996094 L 1129.511719 438.109375 Z M 1064.351562 437.820312 L 1060.535156 437.820312 L 1054.714844 432 L 1057.625 429.085938 L 1060.539062 426.175781 L 1068.167969 426.175781 L 1062.34375 432 L 1068.167969 437.820312 Z M 1003.195312 437.527344 L 999.570312 437.527344 L 994.042969 431.996094 L 996.804688 429.230469 L 999.570312 426.464844 L 1006.820312 426.464844 L 1001.289062 431.996094 L 1006.820312 437.527344 Z M 942.042969 437.234375 L 938.609375 437.234375 L 933.371094 431.996094 L 938.609375 426.757812 L 945.472656 426.757812 L 942.855469 429.378906 L 940.234375 431.996094 L 945.472656 437.234375 Z M 880.886719 436.941406 L 877.648438 436.941406 L 872.699219 431.996094 L 875.175781 429.523438 L 877.648438 427.050781 L 884.128906 427.050781 L 879.183594 431.996094 L 884.128906 436.941406 Z M 819.734375 436.652344 L 816.683594 436.652344 L 812.027344 432 L 814.355469 429.671875 L 816.679688 427.34375 L 822.78125 427.34375 L 820.457031 429.671875 L 818.128906 432 L 822.78125 436.652344 Z M 758.578125 436.359375 L 755.71875 436.359375 L 751.355469 431.996094 L 755.71875 427.632812 L 761.4375 427.632812 L 759.257812 429.816406 L 757.074219 431.996094 L 761.4375 436.359375 Z M 697.425781 436.066406 L 694.757812 436.066406 L 690.683594 431.996094 L 692.722656 429.960938 L 694.757812 427.921875 L 700.09375 427.921875 L 698.058594 429.960938 L 696.023438 431.996094 L 700.09375 436.066406 Z M 633.792969 428.21875 L 638.746094 428.21875 L 636.855469 430.109375 L 634.96875 432 L 638.746094 435.777344 L 633.792969 435.777344 L 630.015625 432 L 631.902344 430.109375 Z M 1431.546875 501.292969 L 1426.226562 501.292969 L 1418.113281 493.179688 L 1426.226562 485.066406 L 1436.863281 485.066406 L 1432.804688 489.121094 L 1428.75 493.179688 L 1436.863281 501.292969 Z M 1370.371094 500.960938 L 1365.273438 500.960938 L 1357.496094 493.179688 L 1361.382812 489.289062 L 1365.273438 485.398438 L 1375.46875 485.398438 L 1371.582031 489.289062 L 1367.691406 493.179688 L 1375.472656 500.960938 Z M 1309.195312 500.625 L 1304.316406 500.625 L 1296.871094 493.179688 L 1304.316406 485.734375 L 1314.074219 485.734375 L 1306.628906 493.179688 L 1314.074219 500.625 Z M 1248.023438 500.292969 L 1243.359375 500.292969 L 1236.246094 493.179688 L 1243.359375 486.066406 L 1252.679688 486.066406 L 1249.125 489.621094 L 1245.570312 493.179688 L 1252.683594 500.292969 Z M 1186.847656 499.957031 L 1182.402344 499.957031 L 1175.625 493.179688 L 1179.011719 489.789062 L 1182.402344 486.402344 L 1191.289062 486.402344 L 1187.898438 489.789062 L 1184.507812 493.179688 L 1191.289062 499.957031 Z M 1125.671875 499.628906 L 1121.445312 499.628906 L 1115 493.179688 L 1121.445312 486.734375 L 1129.894531 486.734375 L 1123.449219 493.179688 L 1129.894531 499.628906 Z M 1064.496094 499.292969 L 1060.492188 499.292969 L 1054.378906 493.179688 L 1057.433594 490.125 L 1060.488281 487.066406 L 1068.5 487.066406 L 1065.445312 490.125 L 1062.390625 493.179688 L 1068.503906 499.292969 Z M 1003.320312 498.960938 L 999.535156 498.960938 L 993.753906 493.179688 L 999.535156 487.398438 L 1007.109375 487.398438 L 1001.328125 493.179688 L 1007.109375 498.960938 Z M 942.144531 498.625 L 938.578125 498.625 L 933.128906 493.179688 L 935.855469 490.457031 L 938.578125 487.734375 L 945.714844 487.734375 L 940.269531 493.179688 L 945.714844 498.625 Z M 880.972656 498.292969 L 877.621094 498.292969 L 872.507812 493.179688 L 877.621094 488.066406 L 884.324219 488.066406 L 879.210938 493.179688 L 884.324219 498.292969 Z M 819.796875 497.960938 L 816.664062 497.960938 L 811.882812 493.179688 L 816.664062 488.398438 L 822.929688 488.398438 L 818.148438 493.179688 L 822.929688 497.960938 Z M 758.621094 497.625 L 755.707031 497.625 L 751.261719 493.179688 L 755.707031 488.734375 L 761.539062 488.734375 L 759.316406 490.957031 L 757.089844 493.179688 L 761.535156 497.625 Z M 697.445312 497.292969 L 694.75 497.292969 L 690.640625 493.179688 L 694.753906 489.066406 L 700.144531 489.066406 L 698.085938 491.125 L 696.027344 493.179688 L 700.140625 497.292969 Z M 633.792969 489.398438 L 638.746094 489.398438 L 636.855469 491.289062 L 634.96875 493.179688 L 638.746094 496.960938 L 633.792969 496.960938 L 630.015625 493.179688 L 631.902344 491.289062 Z M 1431.816406 563.019531 L 1426.144531 563.019531 L 1417.492188 554.363281 L 1421.816406 550.035156 L 1426.144531 545.707031 L 1437.488281 545.707031 L 1428.832031 554.363281 L 1437.488281 563.019531 Z M 1370.621094 562.644531 L 1365.195312 562.644531 L 1356.914062 554.363281 L 1365.195312 546.082031 L 1376.046875 546.082031 L 1367.765625 554.363281 L 1376.046875 562.644531 Z M 1309.425781 562.265625 L 1304.246094 562.265625 L 1296.339844 554.363281 L 1304.246094 546.457031 L 1314.605469 546.457031 L 1310.65625 550.410156 L 1306.703125 554.363281 L 1314.605469 562.265625 Z M 1248.230469 561.890625 L 1243.296875 561.890625 L 1235.765625 554.363281 L 1243.296875 546.832031 L 1253.164062 546.832031 L 1245.632812 554.363281 L 1253.164062 561.890625 Z M 1187.035156 561.515625 L 1182.34375 561.515625 L 1175.191406 554.363281 L 1178.769531 550.785156 L 1182.34375 547.207031 L 1191.722656 547.207031 L 1184.566406 554.363281 L 1191.722656 561.515625 Z M 1125.835938 561.144531 L 1121.394531 561.144531 L 1114.613281 554.363281 L 1118.003906 550.972656 L 1121.394531 547.585938 L 1130.277344 547.585938 L 1123.5 554.363281 L 1130.28125 561.144531 Z M 1064.640625 560.769531 L 1060.445312 560.769531 L 1054.039062 554.363281 L 1060.441406 547.960938 L 1068.835938 547.960938 L 1062.433594 554.363281 L 1068.839844 560.769531 Z M 1003.445312 560.390625 L 999.496094 560.390625 L 993.464844 554.363281 L 996.476562 551.347656 L 999.492188 548.332031 L 1007.394531 548.332031 L 1004.378906 551.347656 L 1001.367188 554.363281 L 1007.394531 560.390625 Z M 942.25 560.015625 L 938.546875 560.015625 L 932.890625 554.363281 L 938.546875 548.707031 L 945.957031 548.707031 L 940.300781 554.363281 L 945.957031 560.015625 Z M 881.054688 559.640625 L 877.59375 559.640625 L 872.316406 554.363281 L 874.957031 551.722656 L 877.59375 549.082031 L 884.515625 549.082031 L 879.234375 554.363281 L 884.515625 559.640625 Z M 819.859375 559.269531 L 816.644531 559.269531 L 811.742188 554.363281 L 814.191406 551.910156 L 816.644531 549.457031 L 823.074219 549.457031 L 818.167969 554.363281 L 823.074219 559.269531 Z M 758.664062 558.894531 L 755.695312 558.894531 L 751.164062 554.363281 L 755.695312 549.832031 L 761.632812 549.832031 L 757.101562 554.363281 L 761.632812 558.894531 Z M 697.46875 558.519531 L 694.746094 558.519531 L 690.589844 554.363281 L 694.746094 550.207031 L 700.191406 550.207031 L 696.035156 554.363281 L 700.191406 558.519531 Z M 633.792969 550.582031 L 638.746094 550.582031 L 636.855469 552.472656 L 634.96875 554.363281 L 638.746094 558.144531 L 633.792969 558.144531 L 630.015625 554.363281 L 631.902344 552.472656 Z M 1432.089844 624.742188 L 1426.0625 624.742188 L 1416.863281 615.546875 L 1426.058594 606.351562 L 1438.113281 606.351562 L 1428.917969 615.546875 L 1438.117188 624.742188 Z M 1370.871094 624.324219 L 1365.117188 624.324219 L 1356.335938 615.546875 L 1365.117188 606.765625 L 1376.625 606.765625 L 1372.234375 611.15625 L 1367.847656 615.546875 L 1376.625 624.324219 Z M 1309.65625 623.90625 L 1304.175781 623.90625 L 1295.8125 615.546875 L 1299.992188 611.363281 L 1304.175781 607.183594 L 1315.136719 607.183594 L 1306.773438 615.546875 L 1315.136719 623.90625 Z M 1248.4375 623.492188 L 1243.230469 623.492188 L 1235.28125 615.546875 L 1243.230469 607.597656 L 1253.644531 607.597656 L 1249.671875 611.570312 L 1245.699219 615.546875 L 1253.644531 623.492188 Z M 1187.222656 623.074219 L 1182.285156 623.074219 L 1174.757812 615.546875 L 1182.289062 608.015625 L 1192.15625 608.015625 L 1184.625 615.546875 L 1192.15625 623.074219 Z M 1126.003906 622.660156 L 1121.34375 622.660156 L 1114.230469 615.546875 L 1117.785156 611.988281 L 1121.339844 608.433594 L 1130.664062 608.433594 L 1123.550781 615.546875 L 1130.664062 622.660156 Z M 1064.789062 622.242188 L 1060.398438 622.242188 L 1053.703125 615.546875 L 1060.398438 608.851562 L 1069.175781 608.851562 L 1062.480469 615.546875 L 1069.175781 622.242188 Z M 1003.570312 621.824219 L 999.453125 621.824219 L 993.175781 615.546875 L 996.316406 612.40625 L 999.453125 609.265625 L 1007.6875 609.265625 L 1001.40625 615.546875 L 1007.6875 621.824219 Z M 942.355469 621.410156 L 938.511719 621.410156 L 932.648438 615.546875 L 935.578125 612.613281 L 938.511719 609.679688 L 946.199219 609.679688 L 940.332031 615.546875 L 946.195312 621.410156 Z M 881.136719 620.992188 L 877.566406 620.992188 L 872.121094 615.546875 L 877.570312 610.097656 L 884.710938 610.097656 L 881.984375 612.820312 L 879.261719 615.546875 L 884.707031 620.992188 Z M 819.921875 620.574219 L 816.625 620.574219 L 811.59375 615.546875 L 816.625 610.515625 L 823.214844 610.515625 L 820.703125 613.03125 L 818.1875 615.546875 L 823.21875 620.574219 Z M 758.703125 620.160156 L 755.679688 620.160156 L 751.070312 615.546875 L 753.375 613.242188 L 755.679688 610.933594 L 761.726562 610.933594 L 759.421875 613.242188 L 757.113281 615.546875 L 761.726562 620.160156 Z M 697.488281 619.742188 L 694.738281 619.742188 L 690.542969 615.546875 L 692.640625 613.445312 L 694.738281 611.347656 L 700.238281 611.347656 L 696.039062 615.546875 L 700.238281 619.742188 Z M 633.792969 611.765625 L 638.746094 611.765625 L 636.855469 613.65625 L 634.96875 615.546875 L 638.746094 619.324219 L 633.792969 619.324219 L 630.015625 615.546875 L 631.902344 613.65625 Z M 1432.359375 686.46875 L 1425.976562 686.46875 L 1416.238281 676.730469 L 1425.976562 666.992188 L 1438.738281 666.992188 L 1433.871094 671.859375 L 1429.003906 676.730469 L 1438.738281 686.46875 Z M 1371.121094 686.007812 L 1365.039062 686.007812 L 1355.761719 676.730469 L 1365.042969 667.449219 L 1377.203125 667.449219 L 1367.921875 676.730469 L 1377.203125 686.007812 Z M 1309.882812 685.550781 L 1304.101562 685.550781 L 1295.28125 676.726562 L 1304.101562 667.90625 L 1315.664062 667.90625 L 1306.84375 676.726562 L 1315.664062 685.550781 Z M 1248.648438 685.09375 L 1243.167969 685.09375 L 1234.804688 676.730469 L 1238.984375 672.546875 L 1243.167969 668.367188 L 1254.128906 668.367188 L 1249.945312 672.546875 L 1245.765625 676.730469 L 1254.128906 685.09375 Z M 1187.410156 684.632812 L 1182.230469 684.632812 L 1174.324219 676.730469 L 1182.230469 668.824219 L 1192.589844 668.824219 L 1188.640625 672.777344 L 1184.6875 676.730469 L 1192.589844 684.632812 Z M 1126.171875 684.175781 L 1121.292969 684.175781 L 1113.84375 676.726562 L 1121.289062 669.28125 L 1131.046875 669.28125 L 1123.601562 676.726562 L 1131.050781 684.175781 Z M 1064.933594 683.71875 L 1060.351562 683.71875 L 1053.367188 676.730469 L 1056.859375 673.234375 L 1060.355469 669.742188 L 1069.515625 669.742188 L 1066.019531 673.234375 L 1062.527344 676.730469 L 1069.515625 683.71875 Z M 1003.695312 683.257812 L 999.417969 683.257812 L 992.886719 676.730469 L 999.417969 670.199219 L 1007.976562 670.199219 L 1001.445312 676.730469 L 1007.976562 683.257812 Z M 942.460938 682.800781 L 938.480469 682.800781 L 932.410156 676.726562 L 938.480469 670.65625 L 946.4375 670.65625 L 940.367188 676.726562 L 946.4375 682.800781 Z M 881.222656 682.34375 L 877.542969 682.34375 L 871.929688 676.730469 L 877.542969 671.117188 L 884.898438 671.117188 L 879.285156 676.730469 L 884.898438 682.34375 Z M 819.984375 681.882812 L 816.605469 681.882812 L 811.449219 676.730469 L 816.605469 671.574219 L 823.363281 671.574219 L 818.207031 676.730469 L 823.363281 681.882812 Z M 758.746094 681.425781 L 755.667969 681.425781 L 750.96875 676.726562 L 755.664062 672.03125 L 761.820312 672.03125 L 757.125 676.726562 L 761.824219 681.425781 Z M 697.507812 680.96875 L 694.730469 680.96875 L 690.492188 676.730469 L 694.730469 672.492188 L 700.285156 672.492188 L 696.046875 676.730469 L 700.285156 680.96875 Z M 633.792969 672.949219 L 638.746094 672.949219 L 636.855469 674.839844 L 634.96875 676.730469 L 638.746094 680.507812 L 633.792969 680.507812 L 630.015625 676.730469 L 631.902344 674.839844 Z M 1432.628906 748.191406 L 1425.894531 748.191406 L 1415.613281 737.910156 L 1425.894531 727.628906 L 1439.371094 727.628906 L 1429.089844 737.910156 L 1439.367188 748.191406 Z M 1371.371094 747.691406 L 1364.960938 747.691406 L 1355.183594 737.910156 L 1360.074219 733.023438 L 1364.960938 728.132812 L 1377.78125 728.132812 L 1372.890625 733.023438 L 1368 737.910156 L 1377.78125 747.691406 Z M 1310.113281 747.191406 L 1304.03125 747.191406 L 1294.753906 737.910156 L 1304.035156 728.628906 L 1316.195312 728.628906 L 1306.914062 737.910156 L 1316.195312 747.191406 Z M 1248.855469 746.691406 L 1243.101562 746.691406 L 1234.320312 737.914062 L 1238.710938 733.523438 L 1243.097656 729.132812 L 1254.609375 729.132812 L 1245.828125 737.914062 L 1254.609375 746.691406 Z M 1187.597656 746.191406 L 1182.171875 746.191406 L 1173.890625 737.910156 L 1182.171875 729.628906 L 1193.023438 729.628906 L 1184.742188 737.910156 L 1193.023438 746.191406 Z M 1126.335938 745.691406 L 1121.238281 745.691406 L 1113.460938 737.910156 L 1121.238281 730.132812 L 1131.433594 730.132812 L 1123.65625 737.910156 L 1131.433594 745.691406 Z M 1065.078125 745.191406 L 1060.308594 745.191406 L 1053.027344 737.910156 L 1056.667969 734.269531 L 1060.308594 730.632812 L 1069.851562 730.632812 L 1066.210938 734.269531 L 1062.570312 737.910156 L 1069.851562 745.191406 Z M 1003.820312 744.691406 L 999.378906 744.691406 L 992.597656 737.910156 L 995.988281 734.523438 L 999.378906 731.132812 L 1008.261719 731.132812 L 1004.875 734.523438 L 1001.484375 737.910156 L 1008.265625 744.691406 Z M 942.5625 744.191406 L 938.445312 744.191406 L 932.167969 737.910156 L 935.304688 734.769531 L 938.445312 731.632812 L 946.679688 731.632812 L 943.539062 734.769531 L 940.398438 737.910156 L 946.679688 744.191406 Z M 881.304688 743.691406 L 877.515625 743.691406 L 871.738281 737.910156 L 877.515625 732.132812 L 885.09375 732.132812 L 882.203125 735.019531 L 879.3125 737.910156 L 885.09375 743.691406 Z M 820.046875 743.191406 L 816.585938 743.191406 L 811.308594 737.910156 L 813.945312 735.269531 L 816.585938 732.632812 L 823.507812 732.632812 L 820.867188 735.269531 L 818.226562 737.910156 L 823.507812 743.191406 Z M 758.789062 742.691406 L 755.65625 742.691406 L 750.875 737.910156 L 755.65625 733.128906 L 761.921875 733.128906 L 757.140625 737.910156 L 761.921875 742.691406 Z M 697.527344 742.191406 L 694.722656 742.191406 L 690.445312 737.910156 L 692.585938 735.773438 L 694.722656 733.632812 L 700.332031 733.632812 L 698.195312 735.773438 L 696.054688 737.910156 L 700.332031 742.191406 Z M 633.792969 734.132812 L 638.746094 734.132812 L 636.855469 736.023438 L 634.96875 737.914062 L 638.746094 741.691406 L 633.792969 741.691406 L 630.015625 737.914062 L 631.902344 736.023438 Z M 633.792969 795.3125 L 638.746094 795.3125 L 636.855469 797.203125 L 634.96875 799.09375 L 638.746094 802.875 L 633.792969 802.875 L 630.015625 799.09375 L 631.902344 797.203125 Z M 633.792969 795.3125 " clip-rule="nonzero"/></clipPath><linearGradient x1="11.305037" gradientTransform="matrix(-1.718651, 0, 0, 1.718651, 1459.420774, -28.18583)" y1="252.007" x2="482.592023" gradientUnits="userSpaceOnUse" y2="252.007" id="8164540b31"><stop stop-opacity="1" stop-color="rgb(43.899536%, 10.998535%, 96.098328%)" offset="0"/><stop stop-opacity="1" stop-color="rgb(44.088745%, 11.062622%, 95.837402%)" offset="0.00390625"/><stop stop-opacity="1" stop-color="rgb(44.277954%, 11.128235%, 95.576477%)" offset="0.0078125"/><stop stop-opacity="1" stop-color="rgb(44.465637%, 11.192322%, 95.315552%)" offset="0.0117188"/><stop stop-opacity="1" stop-color="rgb(44.654846%, 11.257935%, 95.054626%)" offset="0.015625"/><stop stop-opacity="1" stop-color="rgb(44.844055%, 11.322021%, 94.793701%)" offset="0.0195313"/><stop stop-opacity="1" stop-color="rgb(45.033264%, 11.386108%, 94.532776%)" offset="0.0234375"/><stop stop-opacity="1" stop-color="rgb(45.222473%, 11.450195%, 94.271851%)" offset="0.0273438"/><stop stop-opacity="1" stop-color="rgb(45.411682%, 11.515808%, 94.010925%)" offset="0.03125"/><stop stop-opacity="1" stop-color="rgb(45.600891%, 11.579895%, 93.75%)" offset="0.0351563"/><stop stop-opacity="1" stop-color="rgb(45.7901%, 11.645508%, 93.489075%)" offset="0.0390625"/><stop stop-opacity="1" stop-color="rgb(45.979309%, 11.709595%, 93.226624%)" offset="0.0429688"/><stop stop-opacity="1" stop-color="rgb(46.168518%, 11.773682%, 92.965698%)" offset="0.046875"/><stop stop-opacity="1" stop-color="rgb(46.356201%, 11.837769%, 92.704773%)" offset="0.0507813"/><stop stop-opacity="1" stop-color="rgb(46.54541%, 11.903381%, 92.443848%)" offset="0.0546875"/><stop stop-opacity="1" stop-color="rgb(46.734619%, 11.967468%, 92.182922%)" offset="0.0585938"/><stop stop-opacity="1" stop-color="rgb(46.923828%, 12.033081%, 91.921997%)" offset="0.0625"/><stop stop-opacity="1" stop-color="rgb(47.113037%, 12.097168%, 91.661072%)" offset="0.0664063"/><stop stop-opacity="1" stop-color="rgb(47.302246%, 12.161255%, 91.400146%)" offset="0.0703125"/><stop stop-opacity="1" stop-color="rgb(47.491455%, 12.225342%, 91.139221%)" offset="0.0742188"/><stop stop-opacity="1" stop-color="rgb(47.680664%, 12.290955%, 90.878296%)" offset="0.078125"/><stop stop-opacity="1" stop-color="rgb(47.869873%, 12.355042%, 90.615845%)" offset="0.0820313"/><stop stop-opacity="1" stop-color="rgb(48.059082%, 12.420654%, 90.354919%)" offset="0.0859375"/><stop stop-opacity="1" stop-color="rgb(48.246765%, 12.484741%, 90.093994%)" offset="0.0898438"/><stop stop-opacity="1" stop-color="rgb(48.435974%, 12.548828%, 89.833069%)" offset="0.09375"/><stop stop-opacity="1" stop-color="rgb(48.625183%, 12.612915%, 89.572144%)" offset="0.0976563"/><stop stop-opacity="1" stop-color="rgb(48.814392%, 12.678528%, 89.311218%)" offset="0.101563"/><stop stop-opacity="1" stop-color="rgb(49.003601%, 12.742615%, 89.050293%)" offset="0.105469"/><stop stop-opacity="1" stop-color="rgb(49.19281%, 12.808228%, 88.789368%)" offset="0.109375"/><stop stop-opacity="1" stop-color="rgb(49.382019%, 12.872314%, 88.528442%)" offset="0.113281"/><stop stop-opacity="1" stop-color="rgb(49.571228%, 12.936401%, 88.267517%)" offset="0.117188"/><stop stop-opacity="1" stop-color="rgb(49.760437%, 13.000488%, 88.005066%)" offset="0.121094"/><stop stop-opacity="1" stop-color="rgb(49.949646%, 13.066101%, 87.744141%)" offset="0.125"/><stop stop-opacity="1" stop-color="rgb(50.137329%, 13.130188%, 87.483215%)" offset="0.128906"/><stop stop-opacity="1" stop-color="rgb(50.326538%, 13.195801%, 87.22229%)" offset="0.132813"/><stop stop-opacity="1" stop-color="rgb(50.515747%, 13.259888%, 86.961365%)" offset="0.136719"/><stop stop-opacity="1" stop-color="rgb(50.704956%, 13.323975%, 86.700439%)" offset="0.140625"/><stop stop-opacity="1" stop-color="rgb(50.894165%, 13.388062%, 86.439514%)" offset="0.144531"/><stop stop-opacity="1" stop-color="rgb(51.083374%, 13.453674%, 86.178589%)" offset="0.148438"/><stop stop-opacity="1" stop-color="rgb(51.272583%, 13.517761%, 85.917664%)" offset="0.152344"/><stop stop-opacity="1" stop-color="rgb(51.461792%, 13.581848%, 85.656738%)" offset="0.15625"/><stop stop-opacity="1" stop-color="rgb(51.649475%, 13.645935%, 85.395813%)" offset="0.160156"/><stop stop-opacity="1" stop-color="rgb(51.838684%, 13.711548%, 85.134888%)" offset="0.164063"/><stop stop-opacity="1" stop-color="rgb(52.027893%, 13.775635%, 84.872437%)" offset="0.167969"/><stop stop-opacity="1" stop-color="rgb(52.217102%, 13.841248%, 84.611511%)" offset="0.171875"/><stop stop-opacity="1" stop-color="rgb(52.406311%, 13.905334%, 84.350586%)" offset="0.175781"/><stop stop-opacity="1" stop-color="rgb(52.59552%, 13.969421%, 84.089661%)" offset="0.179688"/><stop stop-opacity="1" stop-color="rgb(52.784729%, 14.033508%, 83.828735%)" offset="0.183594"/><stop stop-opacity="1" stop-color="rgb(52.973938%, 14.099121%, 83.56781%)" offset="0.1875"/><stop stop-opacity="1" stop-color="rgb(53.163147%, 14.163208%, 83.306885%)" offset="0.191406"/><stop stop-opacity="1" stop-color="rgb(53.352356%, 14.228821%, 83.045959%)" offset="0.195313"/><stop stop-opacity="1" stop-color="rgb(53.540039%, 14.292908%, 82.785034%)" offset="0.199219"/><stop stop-opacity="1" stop-color="rgb(53.729248%, 14.356995%, 82.524109%)" offset="0.203125"/><stop stop-opacity="1" stop-color="rgb(53.918457%, 14.421082%, 82.261658%)" offset="0.207031"/><stop stop-opacity="1" stop-color="rgb(54.107666%, 14.486694%, 82.000732%)" offset="0.210938"/><stop stop-opacity="1" stop-color="rgb(54.296875%, 14.550781%, 81.739807%)" offset="0.214844"/><stop stop-opacity="1" stop-color="rgb(54.486084%, 14.616394%, 81.478882%)" offset="0.21875"/><stop stop-opacity="1" stop-color="rgb(54.675293%, 14.680481%, 81.217957%)" offset="0.222656"/><stop stop-opacity="1" stop-color="rgb(54.864502%, 14.744568%, 80.957031%)" offset="0.226563"/><stop stop-opacity="1" stop-color="rgb(55.053711%, 14.808655%, 80.696106%)" offset="0.230469"/><stop stop-opacity="1" stop-color="rgb(55.24292%, 14.874268%, 80.435181%)" offset="0.234375"/><stop stop-opacity="1" stop-color="rgb(55.430603%, 14.938354%, 80.174255%)" offset="0.238281"/><stop stop-opacity="1" stop-color="rgb(55.619812%, 15.003967%, 79.91333%)" offset="0.242188"/><stop stop-opacity="1" stop-color="rgb(55.809021%, 15.068054%, 79.650879%)" offset="0.246094"/><stop stop-opacity="1" stop-color="rgb(55.99823%, 15.132141%, 79.389954%)" offset="0.25"/><stop stop-opacity="1" stop-color="rgb(56.187439%, 15.196228%, 79.129028%)" offset="0.253906"/><stop stop-opacity="1" stop-color="rgb(56.376648%, 15.261841%, 78.868103%)" offset="0.257813"/><stop stop-opacity="1" stop-color="rgb(56.565857%, 15.325928%, 78.607178%)" offset="0.261719"/><stop stop-opacity="1" stop-color="rgb(56.755066%, 15.391541%, 78.346252%)" offset="0.265625"/><stop stop-opacity="1" stop-color="rgb(56.944275%, 15.455627%, 78.085327%)" offset="0.269531"/><stop stop-opacity="1" stop-color="rgb(57.133484%, 15.519714%, 77.824402%)" offset="0.273438"/><stop stop-opacity="1" stop-color="rgb(57.321167%, 15.583801%, 77.563477%)" offset="0.277344"/><stop stop-opacity="1" stop-color="rgb(57.510376%, 15.649414%, 77.302551%)" offset="0.28125"/><stop stop-opacity="1" stop-color="rgb(57.699585%, 15.713501%, 77.041626%)" offset="0.285156"/><stop stop-opacity="1" stop-color="rgb(57.888794%, 15.779114%, 76.780701%)" offset="0.289062"/><stop stop-opacity="1" stop-color="rgb(58.078003%, 15.843201%, 76.51825%)" offset="0.292969"/><stop stop-opacity="1" stop-color="rgb(58.267212%, 15.907288%, 76.257324%)" offset="0.296875"/><stop stop-opacity="1" stop-color="rgb(58.456421%, 15.971375%, 75.996399%)" offset="0.300781"/><stop stop-opacity="1" stop-color="rgb(58.64563%, 16.036987%, 75.735474%)" offset="0.304688"/><stop stop-opacity="1" stop-color="rgb(58.834839%, 16.101074%, 75.474548%)" offset="0.308594"/><stop stop-opacity="1" stop-color="rgb(59.024048%, 16.165161%, 75.213623%)" offset="0.3125"/><stop stop-opacity="1" stop-color="rgb(59.211731%, 16.229248%, 74.952698%)" offset="0.316406"/><stop stop-opacity="1" stop-color="rgb(59.40094%, 16.294861%, 74.691772%)" offset="0.320312"/><stop stop-opacity="1" stop-color="rgb(59.590149%, 16.358948%, 74.430847%)" offset="0.324219"/><stop stop-opacity="1" stop-color="rgb(59.779358%, 16.424561%, 74.169922%)" offset="0.328125"/><stop stop-opacity="1" stop-color="rgb(59.968567%, 16.488647%, 73.907471%)" offset="0.332031"/><stop stop-opacity="1" stop-color="rgb(60.157776%, 16.552734%, 73.646545%)" offset="0.335938"/><stop stop-opacity="1" stop-color="rgb(60.346985%, 16.616821%, 73.38562%)" offset="0.339844"/><stop stop-opacity="1" stop-color="rgb(60.536194%, 16.682434%, 73.124695%)" offset="0.34375"/><stop stop-opacity="1" stop-color="rgb(60.723877%, 16.746521%, 72.86377%)" offset="0.347656"/><stop stop-opacity="1" stop-color="rgb(60.913086%, 16.812134%, 72.602844%)" offset="0.351562"/><stop stop-opacity="1" stop-color="rgb(61.102295%, 16.876221%, 72.341919%)" offset="0.355469"/><stop stop-opacity="1" stop-color="rgb(61.291504%, 16.940308%, 72.080994%)" offset="0.359375"/><stop stop-opacity="1" stop-color="rgb(61.480713%, 17.004395%, 71.820068%)" offset="0.363281"/><stop stop-opacity="1" stop-color="rgb(61.669922%, 17.070007%, 71.559143%)" offset="0.367188"/><stop stop-opacity="1" stop-color="rgb(61.859131%, 17.134094%, 71.296692%)" offset="0.371094"/><stop stop-opacity="1" stop-color="rgb(62.04834%, 17.199707%, 71.035767%)" offset="0.375"/><stop stop-opacity="1" stop-color="rgb(62.237549%, 17.263794%, 70.774841%)" offset="0.378906"/><stop stop-opacity="1" stop-color="rgb(62.426758%, 17.327881%, 70.513916%)" offset="0.382812"/><stop stop-opacity="1" stop-color="rgb(62.614441%, 17.391968%, 70.252991%)" offset="0.386719"/><stop stop-opacity="1" stop-color="rgb(62.80365%, 17.457581%, 69.992065%)" offset="0.390625"/><stop stop-opacity="1" stop-color="rgb(62.992859%, 17.521667%, 69.73114%)" offset="0.394531"/><stop stop-opacity="1" stop-color="rgb(63.182068%, 17.58728%, 69.470215%)" offset="0.398438"/><stop stop-opacity="1" stop-color="rgb(63.371277%, 17.651367%, 69.20929%)" offset="0.402344"/><stop stop-opacity="1" stop-color="rgb(63.560486%, 17.715454%, 68.948364%)" offset="0.40625"/><stop stop-opacity="1" stop-color="rgb(63.749695%, 17.779541%, 68.687439%)" offset="0.410156"/><stop stop-opacity="1" stop-color="rgb(63.938904%, 17.845154%, 68.426514%)" offset="0.414062"/><stop stop-opacity="1" stop-color="rgb(64.128113%, 17.909241%, 68.164062%)" offset="0.417969"/><stop stop-opacity="1" stop-color="rgb(64.317322%, 17.974854%, 67.903137%)" offset="0.421875"/><stop stop-opacity="1" stop-color="rgb(64.505005%, 18.03894%, 67.642212%)" offset="0.425781"/><stop stop-opacity="1" stop-color="rgb(64.694214%, 18.103027%, 67.381287%)" offset="0.429688"/><stop stop-opacity="1" stop-color="rgb(64.883423%, 18.167114%, 67.120361%)" offset="0.433594"/><stop stop-opacity="1" stop-color="rgb(65.072632%, 18.232727%, 66.859436%)" offset="0.4375"/><stop stop-opacity="1" stop-color="rgb(65.261841%, 18.296814%, 66.598511%)" offset="0.441406"/><stop stop-opacity="1" stop-color="rgb(65.45105%, 18.360901%, 66.337585%)" offset="0.445313"/><stop stop-opacity="1" stop-color="rgb(65.640259%, 18.424988%, 66.07666%)" offset="0.449219"/><stop stop-opacity="1" stop-color="rgb(65.829468%, 18.490601%, 65.815735%)" offset="0.453125"/><stop stop-opacity="1" stop-color="rgb(66.018677%, 18.554688%, 65.553284%)" offset="0.457031"/><stop stop-opacity="1" stop-color="rgb(66.207886%, 18.6203%, 65.292358%)" offset="0.460938"/><stop stop-opacity="1" stop-color="rgb(66.395569%, 18.684387%, 65.031433%)" offset="0.464844"/><stop stop-opacity="1" stop-color="rgb(66.584778%, 18.748474%, 64.770508%)" offset="0.46875"/><stop stop-opacity="1" stop-color="rgb(66.773987%, 18.812561%, 64.509583%)" offset="0.472656"/><stop stop-opacity="1" stop-color="rgb(66.963196%, 18.878174%, 64.248657%)" offset="0.476562"/><stop stop-opacity="1" stop-color="rgb(67.152405%, 18.942261%, 63.987732%)" offset="0.480469"/><stop stop-opacity="1" stop-color="rgb(67.341614%, 19.007874%, 63.726807%)" offset="0.484375"/><stop stop-opacity="1" stop-color="rgb(67.530823%, 19.07196%, 63.465881%)" offset="0.488281"/><stop stop-opacity="1" stop-color="rgb(67.720032%, 19.136047%, 63.204956%)" offset="0.492188"/><stop stop-opacity="1" stop-color="rgb(67.909241%, 19.200134%, 62.942505%)" offset="0.496094"/><stop stop-opacity="1" stop-color="rgb(68.09845%, 19.265747%, 62.68158%)" offset="0.5"/><stop stop-opacity="1" stop-color="rgb(68.286133%, 19.329834%, 62.420654%)" offset="0.503906"/><stop stop-opacity="1" stop-color="rgb(68.475342%, 19.395447%, 62.159729%)" offset="0.507812"/><stop stop-opacity="1" stop-color="rgb(68.664551%, 19.459534%, 61.898804%)" offset="0.511719"/><stop stop-opacity="1" stop-color="rgb(68.85376%, 19.523621%, 61.637878%)" offset="0.515625"/><stop stop-opacity="1" stop-color="rgb(69.042969%, 19.587708%, 61.376953%)" offset="0.519531"/><stop stop-opacity="1" stop-color="rgb(69.232178%, 19.65332%, 61.116028%)" offset="0.523438"/><stop stop-opacity="1" stop-color="rgb(69.421387%, 19.717407%, 60.855103%)" offset="0.527344"/><stop stop-opacity="1" stop-color="rgb(69.610596%, 19.78302%, 60.594177%)" offset="0.53125"/><stop stop-opacity="1" stop-color="rgb(69.798279%, 19.847107%, 60.333252%)" offset="0.535156"/><stop stop-opacity="1" stop-color="rgb(69.987488%, 19.911194%, 60.072327%)" offset="0.539062"/><stop stop-opacity="1" stop-color="rgb(70.176697%, 19.975281%, 59.809875%)" offset="0.542969"/><stop stop-opacity="1" stop-color="rgb(70.365906%, 20.040894%, 59.54895%)" offset="0.546875"/><stop stop-opacity="1" stop-color="rgb(70.555115%, 20.10498%, 59.288025%)" offset="0.550781"/><stop stop-opacity="1" stop-color="rgb(70.744324%, 20.170593%, 59.0271%)" offset="0.554688"/><stop stop-opacity="1" stop-color="rgb(70.933533%, 20.23468%, 58.766174%)" offset="0.558594"/><stop stop-opacity="1" stop-color="rgb(71.122742%, 20.298767%, 58.505249%)" offset="0.5625"/><stop stop-opacity="1" stop-color="rgb(71.311951%, 20.362854%, 58.244324%)" offset="0.566406"/><stop stop-opacity="1" stop-color="rgb(71.50116%, 20.428467%, 57.983398%)" offset="0.570312"/><stop stop-opacity="1" stop-color="rgb(71.688843%, 20.492554%, 57.722473%)" offset="0.574219"/><stop stop-opacity="1" stop-color="rgb(71.878052%, 20.558167%, 57.461548%)" offset="0.578125"/><stop stop-opacity="1" stop-color="rgb(72.067261%, 20.622253%, 57.199097%)" offset="0.582031"/><stop stop-opacity="1" stop-color="rgb(72.25647%, 20.68634%, 56.938171%)" offset="0.585938"/><stop stop-opacity="1" stop-color="rgb(72.445679%, 20.750427%, 56.677246%)" offset="0.589844"/><stop stop-opacity="1" stop-color="rgb(72.634888%, 20.81604%, 56.416321%)" offset="0.59375"/><stop stop-opacity="1" stop-color="rgb(72.824097%, 20.880127%, 56.155396%)" offset="0.597656"/><stop stop-opacity="1" stop-color="rgb(73.013306%, 20.944214%, 55.89447%)" offset="0.601562"/><stop stop-opacity="1" stop-color="rgb(73.202515%, 21.008301%, 55.633545%)" offset="0.605469"/><stop stop-opacity="1" stop-color="rgb(73.391724%, 21.073914%, 55.37262%)" offset="0.609375"/><stop stop-opacity="1" stop-color="rgb(73.579407%, 21.138%, 55.111694%)" offset="0.613281"/><stop stop-opacity="1" stop-color="rgb(73.768616%, 21.203613%, 54.850769%)" offset="0.617188"/><stop stop-opacity="1" stop-color="rgb(73.957825%, 21.2677%, 54.588318%)" offset="0.621094"/><stop stop-opacity="1" stop-color="rgb(74.147034%, 21.331787%, 54.327393%)" offset="0.625"/><stop stop-opacity="1" stop-color="rgb(74.336243%, 21.395874%, 54.066467%)" offset="0.628906"/><stop stop-opacity="1" stop-color="rgb(74.525452%, 21.461487%, 53.805542%)" offset="0.632812"/><stop stop-opacity="1" stop-color="rgb(74.714661%, 21.525574%, 53.544617%)" offset="0.636719"/><stop stop-opacity="1" stop-color="rgb(74.90387%, 21.591187%, 53.283691%)" offset="0.640625"/><stop stop-opacity="1" stop-color="rgb(75.093079%, 21.655273%, 53.022766%)" offset="0.644531"/><stop stop-opacity="1" stop-color="rgb(75.282288%, 21.71936%, 52.761841%)" offset="0.648438"/><stop stop-opacity="1" stop-color="rgb(75.469971%, 21.783447%, 52.500916%)" offset="0.652344"/><stop stop-opacity="1" stop-color="rgb(75.65918%, 21.84906%, 52.23999%)" offset="0.65625"/><stop stop-opacity="1" stop-color="rgb(75.848389%, 21.913147%, 51.979065%)" offset="0.660156"/><stop stop-opacity="1" stop-color="rgb(76.037598%, 21.97876%, 51.71814%)" offset="0.664062"/><stop stop-opacity="1" stop-color="rgb(76.226807%, 22.042847%, 51.455688%)" offset="0.667969"/><stop stop-opacity="1" stop-color="rgb(76.416016%, 22.106934%, 51.194763%)" offset="0.671875"/><stop stop-opacity="1" stop-color="rgb(76.605225%, 22.171021%, 50.933838%)" offset="0.675781"/><stop stop-opacity="1" stop-color="rgb(76.794434%, 22.236633%, 50.672913%)" offset="0.679688"/><stop stop-opacity="1" stop-color="rgb(76.982117%, 22.30072%, 50.411987%)" offset="0.683594"/><stop stop-opacity="1" stop-color="rgb(77.171326%, 22.366333%, 50.151062%)" offset="0.6875"/><stop stop-opacity="1" stop-color="rgb(77.360535%, 22.43042%, 49.890137%)" offset="0.691406"/><stop stop-opacity="1" stop-color="rgb(77.549744%, 22.494507%, 49.629211%)" offset="0.695312"/><stop stop-opacity="1" stop-color="rgb(77.738953%, 22.558594%, 49.368286%)" offset="0.699219"/><stop stop-opacity="1" stop-color="rgb(77.928162%, 22.624207%, 49.107361%)" offset="0.703125"/><stop stop-opacity="1" stop-color="rgb(78.117371%, 22.688293%, 48.84491%)" offset="0.707031"/><stop stop-opacity="1" stop-color="rgb(78.30658%, 22.753906%, 48.583984%)" offset="0.710938"/><stop stop-opacity="1" stop-color="rgb(78.495789%, 22.817993%, 48.323059%)" offset="0.714844"/><stop stop-opacity="1" stop-color="rgb(78.684998%, 22.88208%, 48.062134%)" offset="0.71875"/><stop stop-opacity="1" stop-color="rgb(78.872681%, 22.946167%, 47.801208%)" offset="0.722656"/><stop stop-opacity="1" stop-color="rgb(79.06189%, 23.01178%, 47.540283%)" offset="0.726562"/><stop stop-opacity="1" stop-color="rgb(79.251099%, 23.075867%, 47.279358%)" offset="0.730469"/><stop stop-opacity="1" stop-color="rgb(79.440308%, 23.141479%, 47.018433%)" offset="0.734375"/><stop stop-opacity="1" stop-color="rgb(79.629517%, 23.205566%, 46.757507%)" offset="0.738281"/><stop stop-opacity="1" stop-color="rgb(79.818726%, 23.269653%, 46.496582%)" offset="0.742188"/><stop stop-opacity="1" stop-color="rgb(80.007935%, 23.33374%, 46.234131%)" offset="0.746094"/><stop stop-opacity="1" stop-color="rgb(80.197144%, 23.399353%, 45.973206%)" offset="0.75"/><stop stop-opacity="1" stop-color="rgb(80.386353%, 23.46344%, 45.71228%)" offset="0.753906"/><stop stop-opacity="1" stop-color="rgb(80.575562%, 23.527527%, 45.451355%)" offset="0.757812"/><stop stop-opacity="1" stop-color="rgb(80.763245%, 23.591614%, 45.19043%)" offset="0.761719"/><stop stop-opacity="1" stop-color="rgb(80.952454%, 23.657227%, 44.929504%)" offset="0.765625"/><stop stop-opacity="1" stop-color="rgb(81.141663%, 23.721313%, 44.668579%)" offset="0.769531"/><stop stop-opacity="1" stop-color="rgb(81.330872%, 23.786926%, 44.407654%)" offset="0.773438"/><stop stop-opacity="1" stop-color="rgb(81.520081%, 23.851013%, 44.146729%)" offset="0.777344"/><stop stop-opacity="1" stop-color="rgb(81.70929%, 23.9151%, 43.885803%)" offset="0.78125"/><stop stop-opacity="1" stop-color="rgb(81.898499%, 23.979187%, 43.624878%)" offset="0.785156"/><stop stop-opacity="1" stop-color="rgb(82.087708%, 24.0448%, 43.363953%)" offset="0.789062"/><stop stop-opacity="1" stop-color="rgb(82.276917%, 24.108887%, 43.101501%)" offset="0.792969"/><stop stop-opacity="1" stop-color="rgb(82.466125%, 24.1745%, 42.840576%)" offset="0.796875"/><stop stop-opacity="1" stop-color="rgb(82.653809%, 24.238586%, 42.579651%)" offset="0.800781"/><stop stop-opacity="1" stop-color="rgb(82.843018%, 24.302673%, 42.318726%)" offset="0.804688"/><stop stop-opacity="1" stop-color="rgb(83.032227%, 24.36676%, 42.0578%)" offset="0.808594"/><stop stop-opacity="1" stop-color="rgb(83.221436%, 24.432373%, 41.796875%)" offset="0.8125"/><stop stop-opacity="1" stop-color="rgb(83.410645%, 24.49646%, 41.53595%)" offset="0.816406"/><stop stop-opacity="1" stop-color="rgb(83.599854%, 24.562073%, 41.275024%)" offset="0.820313"/><stop stop-opacity="1" stop-color="rgb(83.789062%, 24.62616%, 41.014099%)" offset="0.824219"/><stop stop-opacity="1" stop-color="rgb(83.978271%, 24.690247%, 40.753174%)" offset="0.828125"/><stop stop-opacity="1" stop-color="rgb(84.16748%, 24.754333%, 40.490723%)" offset="0.832031"/><stop stop-opacity="1" stop-color="rgb(84.356689%, 24.819946%, 40.229797%)" offset="0.835938"/><stop stop-opacity="1" stop-color="rgb(84.544373%, 24.884033%, 39.968872%)" offset="0.839844"/><stop stop-opacity="1" stop-color="rgb(84.733582%, 24.949646%, 39.707947%)" offset="0.84375"/><stop stop-opacity="1" stop-color="rgb(84.922791%, 25.013733%, 39.447021%)" offset="0.847656"/><stop stop-opacity="1" stop-color="rgb(85.112%, 25.07782%, 39.186096%)" offset="0.851562"/><stop stop-opacity="1" stop-color="rgb(85.301208%, 25.141907%, 38.925171%)" offset="0.855469"/><stop stop-opacity="1" stop-color="rgb(85.490417%, 25.20752%, 38.664246%)" offset="0.859375"/><stop stop-opacity="1" stop-color="rgb(85.679626%, 25.271606%, 38.40332%)" offset="0.863281"/><stop stop-opacity="1" stop-color="rgb(85.868835%, 25.337219%, 38.142395%)" offset="0.867188"/><stop stop-opacity="1" stop-color="rgb(86.056519%, 25.401306%, 37.879944%)" offset="0.871094"/><stop stop-opacity="1" stop-color="rgb(86.245728%, 25.465393%, 37.619019%)" offset="0.875"/><stop stop-opacity="1" stop-color="rgb(86.434937%, 25.52948%, 37.358093%)" offset="0.878906"/><stop stop-opacity="1" stop-color="rgb(86.624146%, 25.595093%, 37.097168%)" offset="0.882812"/><stop stop-opacity="1" stop-color="rgb(86.813354%, 25.65918%, 36.836243%)" offset="0.886719"/><stop stop-opacity="1" stop-color="rgb(87.002563%, 25.723267%, 36.575317%)" offset="0.890625"/><stop stop-opacity="1" stop-color="rgb(87.191772%, 25.787354%, 36.314392%)" offset="0.894531"/><stop stop-opacity="1" stop-color="rgb(87.380981%, 25.852966%, 36.053467%)" offset="0.898438"/><stop stop-opacity="1" stop-color="rgb(87.57019%, 25.917053%, 35.792542%)" offset="0.902344"/><stop stop-opacity="1" stop-color="rgb(87.759399%, 25.982666%, 35.531616%)" offset="0.90625"/><stop stop-opacity="1" stop-color="rgb(87.947083%, 26.046753%, 35.270691%)" offset="0.910156"/><stop stop-opacity="1" stop-color="rgb(88.136292%, 26.11084%, 35.009766%)" offset="0.914062"/><stop stop-opacity="1" stop-color="rgb(88.3255%, 26.174927%, 34.747314%)" offset="0.917969"/><stop stop-opacity="1" stop-color="rgb(88.514709%, 26.24054%, 34.486389%)" offset="0.921875"/><stop stop-opacity="1" stop-color="rgb(88.703918%, 26.304626%, 34.225464%)" offset="0.925781"/><stop stop-opacity="1" stop-color="rgb(88.893127%, 26.370239%, 33.964539%)" offset="0.929688"/><stop stop-opacity="1" stop-color="rgb(89.082336%, 26.434326%, 33.703613%)" offset="0.933594"/><stop stop-opacity="1" stop-color="rgb(89.271545%, 26.498413%, 33.442688%)" offset="0.9375"/><stop stop-opacity="1" stop-color="rgb(89.460754%, 26.5625%, 33.181763%)" offset="0.941406"/><stop stop-opacity="1" stop-color="rgb(89.649963%, 26.628113%, 32.920837%)" offset="0.945312"/><stop stop-opacity="1" stop-color="rgb(89.837646%, 26.6922%, 32.659912%)" offset="0.949219"/><stop stop-opacity="1" stop-color="rgb(90.026855%, 26.757812%, 32.398987%)" offset="0.953125"/><stop stop-opacity="1" stop-color="rgb(90.216064%, 26.821899%, 32.136536%)" offset="0.957031"/><stop stop-opacity="1" stop-color="rgb(90.405273%, 26.885986%, 31.87561%)" offset="0.960938"/><stop stop-opacity="1" stop-color="rgb(90.594482%, 26.950073%, 31.614685%)" offset="0.964844"/><stop stop-opacity="1" stop-color="rgb(90.783691%, 27.015686%, 31.35376%)" offset="0.96875"/><stop stop-opacity="1" stop-color="rgb(90.9729%, 27.079773%, 31.092834%)" offset="0.972656"/><stop stop-opacity="1" stop-color="rgb(91.162109%, 27.145386%, 30.831909%)" offset="0.976562"/><stop stop-opacity="1" stop-color="rgb(91.351318%, 27.209473%, 30.570984%)" offset="0.980469"/><stop stop-opacity="1" stop-color="rgb(91.540527%, 27.27356%, 30.310059%)" offset="0.984375"/><stop stop-opacity="1" stop-color="rgb(91.72821%, 27.337646%, 30.049133%)" offset="0.988281"/><stop stop-opacity="1" stop-color="rgb(91.917419%, 27.403259%, 29.788208%)" offset="0.992188"/><stop stop-opacity="1" stop-color="rgb(92.0578%, 27.450562%, 29.592896%)" offset="1"/></linearGradient></defs><g clip-path="url(#1038a6b144)"><g clip-path="url(#1beaf697a0)"><path fill="url(#8164540b31)" d="M 1439.992188 0 L 1439.992188 809.914062 L 630.015625 809.914062 L 630.015625 0 Z M 1439.992188 0 " fill-rule="nonzero"/></g></g></svg>