<svg xmlns="http://www.w3.org/2000/svg" xmlns:xlink="http://www.w3.org/1999/xlink" width="1920" zoomAndPan="magnify" viewBox="0 0 1440 809.999993" height="1080" preserveAspectRatio="xMidYMid meet" version="1.0"><defs><clipPath id="cae76e8173"><path d="M 1170.492188 0 L 1208 0 L 1208 45 L 1170.492188 45 Z M 1170.492188 0 " clip-rule="nonzero"/></clipPath><clipPath id="5ba4cfa4c9"><path d="M 1170.492188 80 L 1203 80 L 1203 123 L 1170.492188 123 Z M 1170.492188 80 " clip-rule="nonzero"/></clipPath><clipPath id="e67afc28ca"><path d="M 1170.492188 153 L 1220 153 L 1220 202 L 1170.492188 202 Z M 1170.492188 153 " clip-rule="nonzero"/></clipPath><clipPath id="d9f959a300"><path d="M 1170.492188 232 L 1213 232 L 1213 270 L 1170.492188 270 Z M 1170.492188 232 " clip-rule="nonzero"/></clipPath><clipPath id="dc7953581a"><path d="M 1402 0 L 1439.742188 0 L 1439.742188 44 L 1402 44 Z M 1402 0 " clip-rule="nonzero"/></clipPath><clipPath id="a442817803"><path d="M 1413 67 L 1439.742188 67 L 1439.742188 122 L 1413 122 Z M 1413 67 " clip-rule="nonzero"/></clipPath><clipPath id="d6853ef9b2"><path d="M 1414 153 L 1439.742188 153 L 1439.742188 200 L 1414 200 Z M 1414 153 " clip-rule="nonzero"/></clipPath><clipPath id="9a9dc88cae"><path d="M 1403 234 L 1439.742188 234 L 1439.742188 270 L 1403 270 Z M 1403 234 " clip-rule="nonzero"/></clipPath><clipPath id="d8cfe82df4"><path d="M 900.980469 270 L 939 270 L 939 315 L 900.980469 315 Z M 900.980469 270 " clip-rule="nonzero"/></clipPath><clipPath id="1539096431"><path d="M 900.980469 350 L 933 350 L 933 393 L 900.980469 393 Z M 900.980469 350 " clip-rule="nonzero"/></clipPath><clipPath id="6a18340c51"><path d="M 900.980469 423 L 951 423 L 951 472 L 900.980469 472 Z M 900.980469 423 " clip-rule="nonzero"/></clipPath><clipPath id="b06f2824ce"><path d="M 900.980469 502 L 943 502 L 943 540 L 900.980469 540 Z M 900.980469 502 " clip-rule="nonzero"/></clipPath><clipPath id="d6f029069f"><path d="M 1133 270 L 1170.230469 270 L 1170.230469 314 L 1133 314 Z M 1133 270 " clip-rule="nonzero"/></clipPath><clipPath id="a805c5af9c"><path d="M 1143 337 L 1170.230469 337 L 1170.230469 392 L 1143 392 Z M 1143 337 " clip-rule="nonzero"/></clipPath><clipPath id="106cfb3206"><path d="M 1145 423 L 1170.230469 423 L 1170.230469 470 L 1145 470 Z M 1145 423 " clip-rule="nonzero"/></clipPath><clipPath id="a62becd0b4"><path d="M 1134 504 L 1170.230469 504 L 1170.230469 540 L 1134 540 Z M 1134 504 " clip-rule="nonzero"/></clipPath><clipPath id="ae706e2bde"><path d="M 1170.492188 540 L 1208 540 L 1208 585 L 1170.492188 585 Z M 1170.492188 540 " clip-rule="nonzero"/></clipPath><clipPath id="811ec1d95f"><path d="M 1170.492188 620 L 1203 620 L 1203 663 L 1170.492188 663 Z M 1170.492188 620 " clip-rule="nonzero"/></clipPath><clipPath id="54b8e4f761"><path d="M 1170.492188 693 L 1220 693 L 1220 742 L 1170.492188 742 Z M 1170.492188 693 " clip-rule="nonzero"/></clipPath><clipPath id="5b170bcc12"><path d="M 1170.492188 772 L 1213 772 L 1213 810 L 1170.492188 810 Z M 1170.492188 772 " clip-rule="nonzero"/></clipPath><clipPath id="0aa32bbf18"><path d="M 1402 540 L 1439.742188 540 L 1439.742188 584 L 1402 584 Z M 1402 540 " clip-rule="nonzero"/></clipPath><clipPath id="db01aac118"><path d="M 1413 607 L 1439.742188 607 L 1439.742188 662 L 1413 662 Z M 1413 607 " clip-rule="nonzero"/></clipPath><clipPath id="e2500842fa"><path d="M 1414 693 L 1439.742188 693 L 1439.742188 740 L 1414 740 Z M 1414 693 " clip-rule="nonzero"/></clipPath><clipPath id="9f5706a3f6"><path d="M 1403 774 L 1439.742188 774 L 1439.742188 810 L 1403 810 Z M 1403 774 " clip-rule="nonzero"/></clipPath></defs><g clip-path="url(#cae76e8173)"><path fill="#fccfc9" d="M 1207.566406 0.210938 C 1205.027344 14.886719 1202.851562 29.609375 1201.042969 44.382812 C 1195.929688 42.960938 1190.859375 41.515625 1185.574219 40.761719 C 1180.554688 40.054688 1175.527344 40 1170.492188 40.589844 L 1170.492188 0.210938 Z M 1207.566406 0.210938 " fill-opacity="1" fill-rule="nonzero"/></g><path fill="#fccfc9" d="M 1283.125 0.210938 C 1278.898438 15.484375 1275.628906 30.960938 1273.308594 46.640625 C 1260.945312 48.933594 1248.476562 49.976562 1235.902344 49.765625 C 1240.429688 33.25 1244.953125 16.734375 1249.480469 0.210938 Z M 1283.125 0.210938 " fill-opacity="1" fill-rule="nonzero"/><g clip-path="url(#5ba4cfa4c9)"><path fill="#fccfc9" d="M 1202.289062 122.910156 C 1199.746094 122.375 1197.199219 121.886719 1194.632812 121.46875 C 1186.714844 120.199219 1178.367188 119.8125 1170.492188 121.097656 L 1170.492188 80.773438 C 1174.792969 81.441406 1178.964844 82.574219 1183.015625 84.171875 C 1187.863281 86.050781 1192.5625 88.363281 1197.273438 90.640625 C 1197.246094 101.675781 1198.453125 112.609375 1202.289062 122.910156 Z M 1202.289062 122.910156 " fill-opacity="1" fill-rule="nonzero"/></g><g clip-path="url(#e67afc28ca)"><path fill="#fccfc9" d="M 1219.71875 186.46875 C 1203.078125 190.761719 1186.84375 196.511719 1170.492188 201.886719 L 1170.492188 158.972656 C 1178.195312 157.617188 1186.023438 156.71875 1193.8125 155.902344 C 1201.214844 155.128906 1208.621094 154.386719 1216.03125 153.675781 C 1219.371094 164.234375 1220.234375 175.289062 1219.71875 186.46875 Z M 1219.71875 186.46875 " fill-opacity="1" fill-rule="nonzero"/></g><g clip-path="url(#d9f959a300)"><path fill="#fccfc9" d="M 1212.332031 232.261719 C 1209.617188 244.644531 1206.949219 257.222656 1205.867188 269.753906 L 1170.492188 269.753906 L 1170.492188 241.449219 L 1209.011719 232.984375 Z M 1212.332031 232.261719 " fill-opacity="1" fill-rule="nonzero"/></g><path fill="#fccfc9" d="M 1295.007812 234.070312 C 1292.605469 240.230469 1290.699219 246.542969 1289.296875 253.003906 C 1288.167969 258.539062 1287.585938 264.132812 1287.546875 269.78125 L 1249.121094 269.78125 C 1248.875 255.511719 1251.285156 240.953125 1255.425781 227.058594 C 1268.800781 227.601562 1281.9375 230.539062 1295.007812 234.070312 Z M 1295.007812 234.070312 " fill-opacity="1" fill-rule="nonzero"/><path fill="#fccfc9" d="M 1375.089844 26.878906 C 1361.125 25.445312 1347.308594 27.617188 1333.609375 31.007812 C 1331.050781 25.761719 1328.382812 20.570312 1326.445312 15.066406 C 1324.75 10.246094 1323.648438 5.296875 1323.140625 0.210938 L 1360.324219 0.210938 C 1360.90625 3.738281 1361.902344 7.140625 1363.3125 10.425781 C 1364.71875 13.707031 1366.5 16.777344 1368.652344 19.625 C 1370.664062 22.164062 1372.808594 24.582031 1375.089844 26.878906 Z M 1375.089844 26.878906 " fill-opacity="1" fill-rule="nonzero"/><g clip-path="url(#dc7953581a)"><path fill="#fccfc9" d="M 1439.773438 0.210938 L 1439.773438 43.398438 C 1432.425781 42.324219 1425.21875 40.644531 1418.152344 38.363281 C 1414.492188 37.234375 1410.855469 36.023438 1407.203125 34.820312 C 1404.925781 23.316406 1402.972656 11.765625 1402.589844 0.210938 Z M 1439.773438 0.210938 " fill-opacity="1" fill-rule="nonzero"/></g><g clip-path="url(#a442817803)"><path fill="#fccfc9" d="M 1439.773438 80.1875 L 1439.773438 121.015625 C 1437.589844 120.867188 1435.429688 120.542969 1433.296875 120.042969 C 1427.308594 118.628906 1421.894531 115.761719 1416.578125 112.617188 C 1416.578125 112.195312 1416.578125 111.765625 1416.578125 111.34375 C 1416.277344 99.039062 1415.984375 86.703125 1414.492188 74.480469 C 1414.195312 72.039062 1413.851562 69.601562 1413.46875 67.175781 C 1415.464844 68.722656 1417.492188 70.226562 1419.578125 71.605469 C 1425.804688 75.65625 1432.539062 78.515625 1439.773438 80.1875 Z M 1439.773438 80.1875 " fill-opacity="1" fill-rule="nonzero"/></g><g clip-path="url(#d6853ef9b2)"><path fill="#fccfc9" d="M 1439.773438 153.328125 L 1439.773438 190.519531 C 1431.757812 191.566406 1424.050781 193.71875 1417.148438 197.925781 C 1416.285156 198.449219 1415.4375 199.007812 1414.609375 199.585938 C 1416.125 185.621094 1416.941406 171.613281 1417.058594 157.566406 C 1420.546875 156.34375 1424.097656 155.351562 1427.71875 154.589844 C 1431.699219 153.804688 1435.71875 153.382812 1439.773438 153.328125 Z M 1439.773438 153.328125 " fill-opacity="1" fill-rule="nonzero"/></g><path fill="#fccfc9" d="M 1369.9375 248.421875 C 1367.90625 251.855469 1366.261719 255.464844 1365 259.25 C 1363.929688 262.671875 1363.265625 266.175781 1363.003906 269.753906 L 1327.199219 269.753906 C 1327.582031 264.691406 1328.460938 259.722656 1329.839844 254.835938 C 1330.859375 251.324219 1332.066406 247.875 1333.464844 244.496094 C 1344.457031 246.988281 1355.53125 248.679688 1366.792969 248.519531 C 1367.847656 248.503906 1368.890625 248.46875 1369.9375 248.421875 Z M 1369.9375 248.421875 " fill-opacity="1" fill-rule="nonzero"/><g clip-path="url(#9a9dc88cae)"><path fill="#fccfc9" d="M 1439.773438 234.65625 L 1439.773438 269.753906 L 1403.96875 269.753906 C 1404.714844 260.4375 1405.9375 251.183594 1407.644531 241.996094 C 1416.6875 239.757812 1425.714844 237.367188 1434.796875 235.550781 C 1436.460938 235.226562 1438.113281 234.921875 1439.773438 234.65625 Z M 1439.773438 234.65625 " fill-opacity="1" fill-rule="nonzero"/></g><path fill="#fccfc9" d="M 1264.90625 149.710938 C 1256.554688 150.097656 1248.203125 150.765625 1239.914062 151.484375 C 1231.949219 152.167969 1223.988281 152.898438 1216.03125 153.667969 C 1215.578125 152.140625 1215.050781 150.621094 1214.441406 149.113281 C 1210.972656 140.199219 1205.710938 132.042969 1202.34375 123.058594 C 1202.324219 123.011719 1202.304688 122.960938 1202.289062 122.910156 C 1213.683594 125.289062 1224.925781 128.515625 1236.519531 129.324219 L 1237.648438 129.394531 C 1246.792969 135.945312 1258.070312 140.824219 1264.90625 149.710938 Z M 1264.90625 149.710938 " fill-opacity="1" fill-rule="nonzero"/><path fill="#fccfc9" d="M 1271.128906 179.945312 C 1270.980469 180.984375 1270.796875 181.984375 1270.59375 183.03125 C 1268.378906 194.03125 1263.535156 204.292969 1259.570312 214.785156 C 1258.046875 218.792969 1256.667969 222.871094 1255.425781 227.015625 C 1253.304688 226.921875 1251.171875 226.894531 1249.03125 226.929688 C 1236.648438 227.140625 1224.4375 229.605469 1212.332031 232.25 C 1212.785156 230.207031 1213.238281 228.167969 1213.6875 226.132812 C 1216.527344 213.160156 1219.121094 199.726562 1219.738281 186.457031 C 1225.921875 184.859375 1232.15625 183.457031 1238.460938 182.378906 C 1249.265625 180.4375 1260.15625 179.625 1271.128906 179.945312 Z M 1271.128906 179.945312 " fill-opacity="1" fill-rule="nonzero"/><path fill="#fccfc9" d="M 1310.574219 188.386719 C 1298.21875 182.949219 1284.777344 180.421875 1271.128906 179.945312 C 1272.625 169.800781 1271.46875 158.996094 1265.605469 150.671875 C 1265.375 150.351562 1265.140625 150.03125 1264.925781 149.71875 C 1278.183594 149.105469 1291.441406 149.210938 1304.457031 150.976562 C 1305.972656 153.4375 1307.261719 156.011719 1308.328125 158.695312 C 1312.007812 168.113281 1312.230469 178.3125 1310.574219 188.386719 Z M 1310.574219 188.386719 " fill-opacity="1" fill-rule="nonzero"/><path fill="#fccfc9" d="M 1235.902344 49.765625 C 1232.832031 60.964844 1229.765625 72.15625 1226.703125 83.347656 C 1225.242188 88.675781 1223.796875 94.261719 1223.308594 99.773438 C 1221.390625 99.503906 1219.492188 99.144531 1217.613281 98.683594 C 1210.503906 96.945312 1203.886719 93.828125 1197.28125 90.632812 C 1197.28125 82.941406 1197.882812 75.1875 1198.597656 67.5625 C 1199.320312 59.8125 1200.136719 52.085938 1201.042969 44.382812 C 1203.207031 44.980469 1205.367188 45.570312 1207.539062 46.101562 C 1216.863281 48.339844 1226.316406 49.5625 1235.902344 49.765625 Z M 1235.902344 49.765625 " fill-opacity="1" fill-rule="nonzero"/><path fill="#fccfc9" d="M 1343.492188 61.125 L 1285.277344 85.835938 C 1280.398438 87.875 1275.429688 89.980469 1270.382812 91.890625 C 1269.617188 83.511719 1270.097656 74.902344 1270.898438 66.5 C 1271.53125 59.871094 1272.335938 53.257812 1273.308594 46.671875 C 1282.34375 45.070312 1291.308594 42.933594 1300.097656 40.496094 C 1311.207031 37.417969 1322.367188 33.824219 1333.609375 31.042969 C 1334.96875 33.828125 1336.324219 36.636719 1337.484375 39.503906 C 1340.296875 46.484375 1342.300781 53.695312 1343.492188 61.125 Z M 1343.492188 61.125 " fill-opacity="1" fill-rule="nonzero"/><path fill="#fccfc9" d="M 1349.3125 163.480469 C 1340.332031 160.722656 1331.546875 157.152344 1322.480469 154.644531 C 1316.550781 153.011719 1310.535156 151.792969 1304.4375 150.984375 C 1298.203125 140.734375 1288.824219 132.28125 1281.699219 122.488281 C 1285.09375 121.394531 1288.488281 120.21875 1291.882812 119.003906 C 1309.664062 112.554688 1327.042969 104.734375 1345.46875 100.527344 L 1345.761719 100.457031 C 1345.707031 112.960938 1345.429688 125.527344 1346.378906 137.832031 C 1347.003906 146.367188 1348.265625 154.929688 1349.3125 163.480469 Z M 1349.3125 163.480469 " fill-opacity="1" fill-rule="nonzero"/><path fill="#fccfc9" d="M 1390.886719 78.910156 L 1390.335938 99.976562 C 1375.972656 96.203125 1360.371094 97.128906 1345.746094 100.457031 C 1345.816406 87.152344 1345.640625 73.957031 1343.492188 61.132812 L 1345.089844 60.453125 C 1359.230469 54.460938 1374.917969 48.386719 1389.542969 52.414062 C 1391.246094 60.964844 1391.132812 70.128906 1390.886719 78.910156 Z M 1390.886719 78.910156 " fill-opacity="1" fill-rule="nonzero"/><path fill="#fccfc9" d="M 1413.441406 67.175781 C 1406.507812 61.820312 1399.902344 55.933594 1391.714844 53.082031 C 1391.003906 52.835938 1390.285156 52.613281 1389.570312 52.402344 C 1388.539062 46.617188 1386.421875 41.265625 1383.214844 36.34375 C 1380.894531 32.882812 1378.003906 29.882812 1375.117188 26.863281 L 1375.464844 26.863281 C 1386.324219 28.027344 1396.800781 31.355469 1407.230469 34.773438 C 1409.328125 45.585938 1411.742188 56.355469 1413.441406 67.175781 Z M 1413.441406 67.175781 " fill-opacity="1" fill-rule="nonzero"/><path fill="#fccfc9" d="M 1388.605469 166.597656 C 1388.359375 176.144531 1388.109375 185.6875 1387.859375 195.226562 C 1387.667969 202.484375 1387.460938 209.867188 1385.925781 216.917969 C 1373.425781 219.636719 1359.671875 216.621094 1347.75 210.734375 C 1348.140625 209.460938 1348.492188 208.179688 1348.804688 206.882812 C 1352.257812 192.6875 1351.089844 178.109375 1349.3125 163.480469 C 1353.523438 164.808594 1357.804688 165.867188 1362.148438 166.652344 C 1370.972656 168.167969 1379.789062 168.152344 1388.605469 166.597656 Z M 1388.605469 166.597656 " fill-opacity="1" fill-rule="nonzero"/><path fill="#fccfc9" d="M 1417.058594 157.566406 C 1409.664062 160.089844 1402.429688 163.226562 1394.871094 165.226562 C 1392.800781 165.769531 1390.71875 166.230469 1388.605469 166.585938 C 1389.1875 144.386719 1389.761719 122.1875 1390.335938 99.988281 C 1394.023438 100.953125 1397.59375 102.230469 1401.050781 103.828125 C 1406.425781 106.324219 1411.453125 109.605469 1416.578125 112.664062 C 1416.929688 127.585938 1417.269531 142.589844 1417.058594 157.566406 Z M 1417.058594 157.566406 " fill-opacity="1" fill-rule="nonzero"/><path fill="#fccfc9" d="M 1281.699219 122.484375 C 1267.382812 127.0625 1252.570312 130.230469 1237.648438 129.394531 C 1232.417969 125.65625 1227.90625 121.367188 1225.339844 115.476562 C 1223.179688 110.507812 1222.785156 105.175781 1223.300781 99.773438 C 1239.050781 101.972656 1255.035156 97.6875 1270.398438 91.855469 C 1270.949219 99.210938 1272.785156 106.234375 1275.894531 112.921875 C 1277.542969 116.28125 1279.480469 119.46875 1281.699219 122.484375 Z M 1281.699219 122.484375 " fill-opacity="1" fill-rule="nonzero"/><path fill="#fccfc9" d="M 1414.609375 199.585938 C 1414.265625 202.65625 1413.867188 205.722656 1413.421875 208.785156 C 1411.816406 219.847656 1409.578125 230.917969 1407.644531 241.996094 C 1395.179688 245.078125 1382.6875 247.867188 1369.9375 248.421875 C 1374.6875 240.085938 1380.800781 232.351562 1384.097656 223.3125 C 1384.851562 221.222656 1385.460938 219.09375 1385.925781 216.917969 C 1389.527344 216.144531 1392.953125 214.878906 1396.195312 213.128906 C 1402.902344 209.511719 1408.347656 203.925781 1414.609375 199.585938 Z M 1414.609375 199.585938 " fill-opacity="1" fill-rule="nonzero"/><path fill="#fccfc9" d="M 1347.75 210.734375 C 1344.242188 222.394531 1338.089844 233.160156 1333.492188 244.496094 C 1320.59375 241.566406 1307.851562 237.535156 1295.035156 234.070312 C 1298.46875 224.917969 1302.503906 215.941406 1305.761719 206.71875 C 1307.914062 200.746094 1309.527344 194.628906 1310.601562 188.371094 C 1313.167969 189.492188 1315.683594 190.738281 1318.152344 192.117188 C 1326.582031 196.832031 1334.164062 202.941406 1342.480469 207.859375 C 1344.171875 208.886719 1345.9375 209.84375 1347.75 210.734375 Z M 1347.75 210.734375 " fill-opacity="1" fill-rule="nonzero"/><g clip-path="url(#d8cfe82df4)"><path fill="#fccfc9" d="M 938.054688 270.210938 C 935.515625 284.886719 933.34375 299.609375 931.53125 314.382812 C 926.421875 312.960938 921.347656 311.515625 916.066406 310.761719 C 911.046875 310.054688 906.015625 309.996094 900.980469 310.589844 L 900.980469 270.210938 Z M 938.054688 270.210938 " fill-opacity="1" fill-rule="nonzero"/></g><path fill="#fccfc9" d="M 1013.617188 270.210938 C 1009.390625 285.484375 1006.117188 300.960938 1003.800781 316.640625 C 991.4375 318.933594 978.96875 319.976562 966.394531 319.765625 C 970.917969 303.25 975.445312 286.734375 979.972656 270.210938 Z M 1013.617188 270.210938 " fill-opacity="1" fill-rule="nonzero"/><g clip-path="url(#1539096431)"><path fill="#fccfc9" d="M 932.78125 392.910156 C 930.234375 392.375 927.691406 391.882812 925.125 391.46875 C 917.207031 390.199219 908.855469 389.8125 900.980469 391.097656 L 900.980469 350.773438 C 905.28125 351.441406 909.457031 352.574219 913.507812 354.171875 C 918.355469 356.050781 923.050781 358.363281 927.765625 360.640625 C 927.738281 371.675781 928.945312 382.609375 932.78125 392.910156 Z M 932.78125 392.910156 " fill-opacity="1" fill-rule="nonzero"/></g><g clip-path="url(#6a18340c51)"><path fill="#fccfc9" d="M 950.207031 456.46875 C 933.570312 460.761719 917.335938 466.511719 900.980469 471.886719 L 900.980469 428.972656 C 908.6875 427.617188 916.515625 426.71875 924.300781 425.902344 C 931.707031 425.128906 939.113281 424.386719 946.523438 423.675781 C 949.863281 434.234375 950.722656 445.289062 950.207031 456.46875 Z M 950.207031 456.46875 " fill-opacity="1" fill-rule="nonzero"/></g><g clip-path="url(#b06f2824ce)"><path fill="#fccfc9" d="M 942.820312 502.261719 C 940.105469 514.644531 937.4375 527.222656 936.359375 539.753906 L 900.980469 539.753906 L 900.980469 511.449219 L 939.503906 502.984375 Z M 942.820312 502.261719 " fill-opacity="1" fill-rule="nonzero"/></g><path fill="#fccfc9" d="M 1025.496094 504.070312 C 1023.09375 510.230469 1021.191406 516.542969 1019.789062 523.003906 C 1018.660156 528.539062 1018.078125 534.132812 1018.035156 539.78125 L 979.613281 539.78125 C 979.367188 525.511719 981.777344 510.953125 985.917969 497.058594 C 999.292969 497.601562 1012.429688 500.539062 1025.496094 504.070312 Z M 1025.496094 504.070312 " fill-opacity="1" fill-rule="nonzero"/><path fill="#fccfc9" d="M 1105.582031 296.878906 C 1091.617188 295.445312 1077.800781 297.617188 1064.101562 301.007812 C 1061.539062 295.761719 1058.871094 290.570312 1056.9375 285.066406 C 1055.242188 280.246094 1054.140625 275.296875 1053.632812 270.210938 L 1090.816406 270.210938 C 1091.398438 273.738281 1092.394531 277.140625 1093.800781 280.425781 C 1095.210938 283.707031 1096.992188 286.777344 1099.144531 289.625 C 1101.152344 292.164062 1103.296875 294.582031 1105.582031 296.878906 Z M 1105.582031 296.878906 " fill-opacity="1" fill-rule="nonzero"/><g clip-path="url(#d6f029069f)"><path fill="#fccfc9" d="M 1170.265625 270.210938 L 1170.265625 313.398438 C 1162.917969 312.324219 1155.710938 310.644531 1148.644531 308.363281 C 1144.984375 307.234375 1141.34375 306.023438 1137.691406 304.820312 C 1135.417969 293.316406 1133.460938 281.765625 1133.082031 270.210938 Z M 1170.265625 270.210938 " fill-opacity="1" fill-rule="nonzero"/></g><g clip-path="url(#a805c5af9c)"><path fill="#fccfc9" d="M 1170.265625 350.1875 L 1170.265625 391.015625 C 1168.082031 390.867188 1165.921875 390.542969 1163.789062 390.042969 C 1157.800781 388.628906 1152.382812 385.761719 1147.066406 382.617188 C 1147.066406 382.195312 1147.066406 381.765625 1147.066406 381.34375 C 1146.769531 369.039062 1146.476562 356.703125 1144.984375 344.480469 C 1144.683594 342.039062 1144.34375 339.601562 1143.957031 337.175781 C 1145.953125 338.722656 1147.984375 340.226562 1150.070312 341.605469 C 1156.296875 345.65625 1163.027344 348.515625 1170.265625 350.1875 Z M 1170.265625 350.1875 " fill-opacity="1" fill-rule="nonzero"/></g><g clip-path="url(#106cfb3206)"><path fill="#fccfc9" d="M 1170.265625 423.328125 L 1170.265625 460.519531 C 1162.246094 461.566406 1154.542969 463.71875 1147.636719 467.925781 C 1146.777344 468.449219 1145.925781 469.007812 1145.097656 469.585938 C 1146.617188 455.621094 1147.433594 441.613281 1147.550781 427.566406 C 1151.039062 426.34375 1154.589844 425.351562 1158.207031 424.589844 C 1162.1875 423.804688 1166.207031 423.382812 1170.265625 423.328125 Z M 1170.265625 423.328125 " fill-opacity="1" fill-rule="nonzero"/></g><path fill="#fccfc9" d="M 1100.425781 518.421875 C 1098.398438 521.855469 1096.75 525.464844 1095.492188 529.25 C 1094.421875 532.671875 1093.757812 536.175781 1093.496094 539.753906 L 1057.691406 539.753906 C 1058.070312 534.691406 1058.953125 529.722656 1060.332031 524.835938 C 1061.351562 521.324219 1062.558594 517.875 1063.957031 514.496094 C 1074.949219 516.988281 1086.023438 518.679688 1097.285156 518.519531 C 1098.335938 518.503906 1099.382812 518.46875 1100.425781 518.421875 Z M 1100.425781 518.421875 " fill-opacity="1" fill-rule="nonzero"/><g clip-path="url(#a62becd0b4)"><path fill="#fccfc9" d="M 1170.265625 504.65625 L 1170.265625 539.753906 L 1134.460938 539.753906 C 1135.203125 530.4375 1136.429688 521.183594 1138.132812 511.996094 C 1147.175781 509.757812 1156.207031 507.367188 1165.289062 505.550781 C 1166.953125 505.226562 1168.601562 504.921875 1170.265625 504.65625 Z M 1170.265625 504.65625 " fill-opacity="1" fill-rule="nonzero"/></g><path fill="#fccfc9" d="M 995.394531 419.710938 C 987.046875 420.097656 978.695312 420.765625 970.40625 421.484375 C 962.441406 422.167969 954.480469 422.898438 946.523438 423.667969 C 946.070312 422.140625 945.539062 420.621094 944.933594 419.113281 C 941.464844 410.199219 936.203125 402.042969 932.835938 393.058594 C 932.816406 393.011719 932.796875 392.960938 932.78125 392.910156 C 944.171875 395.289062 955.414062 398.515625 967.011719 399.324219 L 968.136719 399.394531 C 977.28125 405.945312 988.558594 410.824219 995.394531 419.710938 Z M 995.394531 419.710938 " fill-opacity="1" fill-rule="nonzero"/><path fill="#fccfc9" d="M 1001.621094 449.945312 C 1001.472656 450.984375 1001.289062 451.984375 1001.085938 453.03125 C 998.871094 464.03125 994.023438 474.292969 990.058594 484.785156 C 988.539062 488.792969 987.160156 492.871094 985.917969 497.015625 C 983.796875 496.921875 981.664062 496.894531 979.523438 496.929688 C 967.140625 497.140625 954.925781 499.605469 942.820312 502.25 C 943.273438 500.207031 943.726562 498.167969 944.179688 496.132812 C 947.019531 483.160156 949.609375 469.726562 950.230469 456.457031 C 956.414062 454.859375 962.644531 453.457031 968.953125 452.378906 C 979.757812 450.4375 990.648438 449.625 1001.621094 449.945312 Z M 1001.621094 449.945312 " fill-opacity="1" fill-rule="nonzero"/><path fill="#fccfc9" d="M 1041.066406 458.386719 C 1028.710938 452.949219 1015.265625 450.421875 1001.621094 449.945312 C 1003.113281 439.800781 1001.960938 428.996094 996.09375 420.671875 C 995.863281 420.351562 995.632812 420.03125 995.417969 419.71875 C 1008.675781 419.105469 1021.933594 419.210938 1034.949219 420.976562 C 1036.460938 423.4375 1037.753906 426.011719 1038.816406 428.695312 C 1042.496094 438.113281 1042.722656 448.3125 1041.066406 458.386719 Z M 1041.066406 458.386719 " fill-opacity="1" fill-rule="nonzero"/><path fill="#fccfc9" d="M 966.394531 319.765625 C 963.324219 330.964844 960.257812 342.15625 957.195312 353.347656 C 955.734375 358.675781 954.289062 364.261719 953.800781 369.773438 C 951.882812 369.503906 949.984375 369.144531 948.105469 368.683594 C 940.996094 366.945312 934.375 363.828125 927.769531 360.632812 C 927.769531 352.941406 928.375 345.1875 929.089844 337.5625 C 929.8125 329.808594 930.625 322.085938 931.53125 314.382812 C 933.699219 314.980469 935.855469 315.570312 938.027344 316.101562 C 947.351562 318.339844 956.808594 319.5625 966.394531 319.765625 Z M 966.394531 319.765625 " fill-opacity="1" fill-rule="nonzero"/><path fill="#fccfc9" d="M 1073.984375 331.125 L 1015.769531 355.835938 C 1010.886719 357.875 1005.917969 359.980469 1000.875 361.890625 C 1000.105469 353.511719 1000.589844 344.902344 1001.390625 336.5 C 1002.023438 329.871094 1002.828125 323.257812 1003.800781 316.671875 C 1012.835938 315.070312 1021.796875 312.933594 1030.589844 310.496094 C 1041.695312 307.417969 1052.859375 303.824219 1064.101562 301.042969 C 1065.457031 303.828125 1066.816406 306.636719 1067.976562 309.503906 C 1070.789062 316.484375 1072.792969 323.695312 1073.984375 331.125 Z M 1073.984375 331.125 " fill-opacity="1" fill-rule="nonzero"/><path fill="#fccfc9" d="M 1079.804688 433.480469 C 1070.820312 430.722656 1062.035156 427.152344 1052.972656 424.644531 C 1047.042969 423.011719 1041.027344 421.792969 1034.929688 420.984375 C 1028.695312 410.734375 1019.3125 402.28125 1012.191406 392.488281 C 1015.585938 391.394531 1018.980469 390.21875 1022.375 389.003906 C 1040.15625 382.554688 1057.535156 374.734375 1075.960938 370.527344 L 1076.253906 370.457031 C 1076.199219 382.960938 1075.917969 395.527344 1076.871094 407.832031 C 1077.496094 416.367188 1078.757812 424.929688 1079.804688 433.480469 Z M 1079.804688 433.480469 " fill-opacity="1" fill-rule="nonzero"/><path fill="#fccfc9" d="M 1121.378906 348.910156 L 1120.828125 369.976562 C 1106.464844 366.203125 1090.863281 367.128906 1076.238281 370.457031 C 1076.304688 357.152344 1076.128906 343.957031 1073.984375 331.132812 L 1075.582031 330.453125 C 1089.722656 324.460938 1105.410156 318.386719 1120.035156 322.414062 C 1121.738281 330.964844 1121.621094 340.128906 1121.378906 348.910156 Z M 1121.378906 348.910156 " fill-opacity="1" fill-rule="nonzero"/><path fill="#fccfc9" d="M 1143.929688 337.175781 C 1137 331.820312 1130.394531 325.933594 1122.207031 323.082031 C 1121.492188 322.835938 1120.773438 322.613281 1120.0625 322.402344 C 1119.03125 316.617188 1116.910156 311.265625 1113.707031 306.34375 C 1111.386719 302.882812 1108.492188 299.882812 1105.609375 296.863281 L 1105.953125 296.863281 C 1116.816406 298.027344 1127.292969 301.355469 1137.71875 304.773438 C 1139.816406 315.585938 1142.234375 326.355469 1143.929688 337.175781 Z M 1143.929688 337.175781 " fill-opacity="1" fill-rule="nonzero"/><path fill="#fccfc9" d="M 1119.097656 436.597656 C 1118.847656 446.144531 1118.597656 455.6875 1118.351562 465.226562 C 1118.160156 472.484375 1117.949219 479.867188 1116.414062 486.917969 C 1103.917969 489.636719 1090.164062 486.621094 1078.242188 480.734375 C 1078.628906 479.460938 1078.980469 478.179688 1079.292969 476.882812 C 1082.75 462.6875 1081.582031 448.109375 1079.804688 433.480469 C 1084.015625 434.808594 1088.292969 435.867188 1092.640625 436.652344 C 1101.460938 438.167969 1110.28125 438.152344 1119.097656 436.597656 Z M 1119.097656 436.597656 " fill-opacity="1" fill-rule="nonzero"/><path fill="#fccfc9" d="M 1147.550781 427.566406 C 1140.15625 430.089844 1132.917969 433.226562 1125.363281 435.226562 C 1123.292969 435.769531 1121.207031 436.230469 1119.097656 436.585938 C 1119.675781 414.386719 1120.253906 392.1875 1120.828125 369.988281 C 1124.511719 370.953125 1128.085938 372.230469 1131.542969 373.828125 C 1136.917969 376.324219 1141.941406 379.605469 1147.066406 382.664062 C 1147.421875 397.585938 1147.761719 412.589844 1147.550781 427.566406 Z M 1147.550781 427.566406 " fill-opacity="1" fill-rule="nonzero"/><path fill="#fccfc9" d="M 1012.191406 392.484375 C 997.875 397.0625 983.058594 400.230469 968.136719 399.394531 C 962.910156 395.65625 958.394531 391.367188 955.828125 385.476562 C 953.671875 380.507812 953.277344 375.175781 953.792969 369.773438 C 969.542969 371.972656 985.523438 367.6875 1000.886719 361.855469 C 1001.441406 369.210938 1003.273438 376.234375 1006.386719 382.921875 C 1008.035156 386.28125 1009.96875 389.46875 1012.191406 392.484375 Z M 1012.191406 392.484375 " fill-opacity="1" fill-rule="nonzero"/><path fill="#fccfc9" d="M 1145.097656 469.585938 C 1144.753906 472.65625 1144.359375 475.722656 1143.910156 478.785156 C 1142.308594 489.847656 1140.070312 500.917969 1138.132812 511.996094 C 1125.667969 515.078125 1113.175781 517.867188 1100.425781 518.421875 C 1105.179688 510.085938 1111.289062 502.351562 1114.589844 493.3125 C 1115.34375 491.222656 1115.953125 489.09375 1116.414062 486.917969 C 1120.019531 486.144531 1123.441406 484.878906 1126.6875 483.128906 C 1133.394531 479.511719 1138.839844 473.925781 1145.097656 469.585938 Z M 1145.097656 469.585938 " fill-opacity="1" fill-rule="nonzero"/><path fill="#fccfc9" d="M 1078.242188 480.734375 C 1074.730469 492.394531 1068.582031 503.160156 1063.984375 514.496094 C 1051.085938 511.566406 1038.34375 507.535156 1025.523438 504.070312 C 1028.960938 494.917969 1032.992188 485.941406 1036.25 476.71875 C 1038.40625 470.746094 1040.019531 464.628906 1041.09375 458.371094 C 1043.660156 459.492188 1046.175781 460.738281 1048.640625 462.117188 C 1057.074219 466.832031 1064.65625 472.941406 1072.972656 477.859375 C 1074.664062 478.886719 1076.429688 479.84375 1078.242188 480.734375 Z M 1078.242188 480.734375 " fill-opacity="1" fill-rule="nonzero"/><g clip-path="url(#ae706e2bde)"><path fill="#fccfc9" d="M 1207.566406 540.210938 C 1205.027344 554.886719 1202.851562 569.609375 1201.042969 584.382812 C 1195.929688 582.960938 1190.859375 581.515625 1185.574219 580.761719 C 1180.554688 580.054688 1175.527344 579.996094 1170.492188 580.589844 L 1170.492188 540.210938 Z M 1207.566406 540.210938 " fill-opacity="1" fill-rule="nonzero"/></g><path fill="#fccfc9" d="M 1283.125 540.210938 C 1278.898438 555.484375 1275.628906 570.960938 1273.308594 586.636719 C 1260.945312 588.933594 1248.476562 589.976562 1235.902344 589.765625 C 1240.429688 573.25 1244.953125 556.734375 1249.480469 540.210938 Z M 1283.125 540.210938 " fill-opacity="1" fill-rule="nonzero"/><g clip-path="url(#811ec1d95f)"><path fill="#fccfc9" d="M 1202.289062 662.910156 C 1199.746094 662.375 1197.199219 661.882812 1194.632812 661.46875 C 1186.714844 660.199219 1178.367188 659.8125 1170.492188 661.097656 L 1170.492188 620.773438 C 1174.792969 621.441406 1178.964844 622.574219 1183.015625 624.171875 C 1187.863281 626.050781 1192.5625 628.363281 1197.273438 630.640625 C 1197.246094 641.675781 1198.453125 652.609375 1202.289062 662.910156 Z M 1202.289062 662.910156 " fill-opacity="1" fill-rule="nonzero"/></g><g clip-path="url(#54b8e4f761)"><path fill="#fccfc9" d="M 1219.71875 726.46875 C 1203.078125 730.761719 1186.84375 736.511719 1170.492188 741.886719 L 1170.492188 698.972656 C 1178.195312 697.617188 1186.023438 696.71875 1193.8125 695.902344 C 1201.214844 695.128906 1208.621094 694.386719 1216.03125 693.675781 C 1219.371094 704.234375 1220.234375 715.289062 1219.71875 726.46875 Z M 1219.71875 726.46875 " fill-opacity="1" fill-rule="nonzero"/></g><g clip-path="url(#5b170bcc12)"><path fill="#fccfc9" d="M 1212.332031 772.261719 C 1209.617188 784.644531 1206.949219 797.222656 1205.867188 809.753906 L 1170.492188 809.753906 L 1170.492188 781.449219 L 1209.011719 772.984375 Z M 1212.332031 772.261719 " fill-opacity="1" fill-rule="nonzero"/></g><path fill="#fccfc9" d="M 1295.007812 774.070312 C 1292.605469 780.230469 1290.699219 786.542969 1289.296875 793.003906 C 1288.167969 798.539062 1287.585938 804.132812 1287.546875 809.78125 L 1249.121094 809.78125 C 1248.875 795.511719 1251.285156 780.953125 1255.425781 767.058594 C 1268.800781 767.601562 1281.9375 770.539062 1295.007812 774.070312 Z M 1295.007812 774.070312 " fill-opacity="1" fill-rule="nonzero"/><path fill="#fccfc9" d="M 1375.089844 566.878906 C 1361.125 565.445312 1347.308594 567.617188 1333.609375 571.007812 C 1331.050781 565.761719 1328.382812 560.570312 1326.445312 555.066406 C 1324.75 550.246094 1323.648438 545.296875 1323.140625 540.210938 L 1360.324219 540.210938 C 1360.90625 543.738281 1361.902344 547.140625 1363.3125 550.425781 C 1364.71875 553.707031 1366.5 556.777344 1368.652344 559.625 C 1370.664062 562.164062 1372.808594 564.582031 1375.089844 566.878906 Z M 1375.089844 566.878906 " fill-opacity="1" fill-rule="nonzero"/><g clip-path="url(#0aa32bbf18)"><path fill="#fccfc9" d="M 1439.773438 540.210938 L 1439.773438 583.398438 C 1432.425781 582.324219 1425.21875 580.644531 1418.152344 578.363281 C 1414.492188 577.234375 1410.855469 576.023438 1407.203125 574.820312 C 1404.925781 563.316406 1402.972656 551.765625 1402.589844 540.210938 Z M 1439.773438 540.210938 " fill-opacity="1" fill-rule="nonzero"/></g><g clip-path="url(#db01aac118)"><path fill="#fccfc9" d="M 1439.773438 620.1875 L 1439.773438 661.015625 C 1437.589844 660.867188 1435.429688 660.542969 1433.296875 660.042969 C 1427.308594 658.628906 1421.894531 655.761719 1416.578125 652.617188 C 1416.578125 652.195312 1416.578125 651.765625 1416.578125 651.34375 C 1416.277344 639.039062 1415.984375 626.703125 1414.492188 614.480469 C 1414.195312 612.039062 1413.851562 609.601562 1413.46875 607.175781 C 1415.464844 608.722656 1417.492188 610.226562 1419.578125 611.605469 C 1425.804688 615.65625 1432.539062 618.515625 1439.773438 620.1875 Z M 1439.773438 620.1875 " fill-opacity="1" fill-rule="nonzero"/></g><g clip-path="url(#e2500842fa)"><path fill="#fccfc9" d="M 1439.773438 693.328125 L 1439.773438 730.519531 C 1431.757812 731.566406 1424.050781 733.71875 1417.148438 737.925781 C 1416.285156 738.449219 1415.4375 739.007812 1414.609375 739.585938 C 1416.125 725.621094 1416.941406 711.613281 1417.058594 697.566406 C 1420.546875 696.34375 1424.097656 695.351562 1427.71875 694.589844 C 1431.699219 693.804688 1435.71875 693.382812 1439.773438 693.328125 Z M 1439.773438 693.328125 " fill-opacity="1" fill-rule="nonzero"/></g><path fill="#fccfc9" d="M 1369.9375 788.421875 C 1367.90625 791.855469 1366.261719 795.464844 1365 799.25 C 1363.929688 802.671875 1363.265625 806.175781 1363.003906 809.753906 L 1327.199219 809.753906 C 1327.582031 804.691406 1328.460938 799.722656 1329.839844 794.835938 C 1330.859375 791.324219 1332.066406 787.875 1333.464844 784.496094 C 1344.457031 786.988281 1355.53125 788.679688 1366.792969 788.519531 C 1367.847656 788.503906 1368.890625 788.46875 1369.9375 788.421875 Z M 1369.9375 788.421875 " fill-opacity="1" fill-rule="nonzero"/><g clip-path="url(#9f5706a3f6)"><path fill="#fccfc9" d="M 1439.773438 774.65625 L 1439.773438 809.753906 L 1403.96875 809.753906 C 1404.714844 800.4375 1405.9375 791.183594 1407.644531 781.996094 C 1416.6875 779.757812 1425.714844 777.367188 1434.796875 775.550781 C 1436.460938 775.226562 1438.113281 774.921875 1439.773438 774.65625 Z M 1439.773438 774.65625 " fill-opacity="1" fill-rule="nonzero"/></g><path fill="#fccfc9" d="M 1264.90625 689.710938 C 1256.554688 690.097656 1248.203125 690.765625 1239.914062 691.484375 C 1231.949219 692.167969 1223.988281 692.898438 1216.03125 693.667969 C 1215.578125 692.140625 1215.050781 690.621094 1214.441406 689.113281 C 1210.972656 680.199219 1205.710938 672.042969 1202.34375 663.058594 C 1202.324219 663.011719 1202.304688 662.960938 1202.289062 662.910156 C 1213.683594 665.289062 1224.925781 668.515625 1236.519531 669.324219 L 1237.648438 669.394531 C 1246.792969 675.945312 1258.070312 680.824219 1264.90625 689.710938 Z M 1264.90625 689.710938 " fill-opacity="1" fill-rule="nonzero"/><path fill="#fccfc9" d="M 1271.128906 719.945312 C 1270.980469 720.984375 1270.796875 721.984375 1270.59375 723.03125 C 1268.378906 734.03125 1263.535156 744.292969 1259.570312 754.785156 C 1258.046875 758.792969 1256.667969 762.871094 1255.425781 767.015625 C 1253.304688 766.921875 1251.171875 766.894531 1249.03125 766.929688 C 1236.648438 767.140625 1224.4375 769.605469 1212.332031 772.25 C 1212.785156 770.207031 1213.238281 768.167969 1213.6875 766.132812 C 1216.527344 753.160156 1219.121094 739.726562 1219.738281 726.457031 C 1225.921875 724.859375 1232.15625 723.457031 1238.460938 722.378906 C 1249.265625 720.4375 1260.15625 719.625 1271.128906 719.945312 Z M 1271.128906 719.945312 " fill-opacity="1" fill-rule="nonzero"/><path fill="#fccfc9" d="M 1310.574219 728.386719 C 1298.21875 722.949219 1284.777344 720.421875 1271.128906 719.945312 C 1272.625 709.800781 1271.46875 698.996094 1265.605469 690.671875 C 1265.375 690.351562 1265.140625 690.03125 1264.925781 689.71875 C 1278.183594 689.105469 1291.441406 689.210938 1304.457031 690.976562 C 1305.972656 693.4375 1307.261719 696.011719 1308.328125 698.695312 C 1312.007812 708.113281 1312.230469 718.3125 1310.574219 728.386719 Z M 1310.574219 728.386719 " fill-opacity="1" fill-rule="nonzero"/><path fill="#fccfc9" d="M 1235.902344 589.765625 C 1232.832031 600.964844 1229.765625 612.15625 1226.703125 623.347656 C 1225.242188 628.675781 1223.796875 634.261719 1223.308594 639.773438 C 1221.390625 639.503906 1219.492188 639.144531 1217.613281 638.683594 C 1210.503906 636.945312 1203.886719 633.828125 1197.28125 630.632812 C 1197.28125 622.941406 1197.882812 615.1875 1198.597656 607.5625 C 1199.320312 599.808594 1200.136719 592.085938 1201.042969 584.382812 C 1203.207031 584.980469 1205.367188 585.570312 1207.539062 586.101562 C 1216.863281 588.339844 1226.316406 589.5625 1235.902344 589.765625 Z M 1235.902344 589.765625 " fill-opacity="1" fill-rule="nonzero"/><path fill="#fccfc9" d="M 1343.492188 601.125 L 1285.277344 625.835938 C 1280.398438 627.875 1275.429688 629.980469 1270.382812 631.890625 C 1269.617188 623.511719 1270.097656 614.902344 1270.898438 606.5 C 1271.53125 599.871094 1272.335938 593.257812 1273.308594 586.671875 C 1282.34375 585.070312 1291.308594 582.933594 1300.097656 580.496094 C 1311.207031 577.417969 1322.367188 573.824219 1333.609375 571.042969 C 1334.96875 573.828125 1336.324219 576.636719 1337.484375 579.503906 C 1340.296875 586.484375 1342.300781 593.695312 1343.492188 601.125 Z M 1343.492188 601.125 " fill-opacity="1" fill-rule="nonzero"/><path fill="#fccfc9" d="M 1349.3125 703.480469 C 1340.332031 700.722656 1331.546875 697.152344 1322.480469 694.644531 C 1316.550781 693.011719 1310.535156 691.792969 1304.4375 690.984375 C 1298.203125 680.734375 1288.824219 672.28125 1281.699219 662.488281 C 1285.09375 661.394531 1288.488281 660.21875 1291.882812 659.003906 C 1309.664062 652.554688 1327.042969 644.734375 1345.46875 640.527344 L 1345.761719 640.457031 C 1345.707031 652.960938 1345.429688 665.527344 1346.378906 677.832031 C 1347.003906 686.367188 1348.265625 694.929688 1349.3125 703.480469 Z M 1349.3125 703.480469 " fill-opacity="1" fill-rule="nonzero"/><path fill="#fccfc9" d="M 1390.886719 618.910156 L 1390.335938 639.976562 C 1375.972656 636.203125 1360.371094 637.128906 1345.746094 640.457031 C 1345.816406 627.152344 1345.640625 613.957031 1343.492188 601.132812 L 1345.089844 600.453125 C 1359.230469 594.460938 1374.917969 588.386719 1389.542969 592.414062 C 1391.246094 600.964844 1391.132812 610.128906 1390.886719 618.910156 Z M 1390.886719 618.910156 " fill-opacity="1" fill-rule="nonzero"/><path fill="#fccfc9" d="M 1413.441406 607.175781 C 1406.507812 601.820312 1399.902344 595.933594 1391.714844 593.082031 C 1391.003906 592.835938 1390.285156 592.613281 1389.570312 592.402344 C 1388.539062 586.617188 1386.421875 581.265625 1383.214844 576.34375 C 1380.894531 572.882812 1378.003906 569.882812 1375.117188 566.863281 L 1375.464844 566.863281 C 1386.324219 568.027344 1396.800781 571.355469 1407.230469 574.773438 C 1409.328125 585.585938 1411.742188 596.355469 1413.441406 607.175781 Z M 1413.441406 607.175781 " fill-opacity="1" fill-rule="nonzero"/><path fill="#fccfc9" d="M 1388.605469 706.597656 C 1388.359375 716.144531 1388.109375 725.6875 1387.859375 735.226562 C 1387.667969 742.484375 1387.460938 749.867188 1385.925781 756.917969 C 1373.425781 759.636719 1359.671875 756.621094 1347.75 750.734375 C 1348.140625 749.460938 1348.492188 748.179688 1348.804688 746.882812 C 1352.257812 732.6875 1351.089844 718.109375 1349.3125 703.480469 C 1353.523438 704.808594 1357.804688 705.867188 1362.148438 706.652344 C 1370.972656 708.167969 1379.789062 708.152344 1388.605469 706.597656 Z M 1388.605469 706.597656 " fill-opacity="1" fill-rule="nonzero"/><path fill="#fccfc9" d="M 1417.058594 697.566406 C 1409.664062 700.089844 1402.429688 703.226562 1394.871094 705.226562 C 1392.800781 705.769531 1390.71875 706.230469 1388.605469 706.585938 C 1389.1875 684.386719 1389.761719 662.1875 1390.335938 639.988281 C 1394.023438 640.953125 1397.59375 642.230469 1401.050781 643.828125 C 1406.425781 646.324219 1411.453125 649.605469 1416.578125 652.664062 C 1416.929688 667.585938 1417.269531 682.589844 1417.058594 697.566406 Z M 1417.058594 697.566406 " fill-opacity="1" fill-rule="nonzero"/><path fill="#fccfc9" d="M 1281.699219 662.484375 C 1267.382812 667.0625 1252.570312 670.230469 1237.648438 669.394531 C 1232.417969 665.65625 1227.90625 661.367188 1225.339844 655.476562 C 1223.179688 650.507812 1222.785156 645.175781 1223.300781 639.773438 C 1239.050781 641.972656 1255.035156 637.6875 1270.398438 631.855469 C 1270.949219 639.210938 1272.785156 646.234375 1275.894531 652.921875 C 1277.542969 656.28125 1279.480469 659.46875 1281.699219 662.484375 Z M 1281.699219 662.484375 " fill-opacity="1" fill-rule="nonzero"/><path fill="#fccfc9" d="M 1414.609375 739.585938 C 1414.265625 742.65625 1413.867188 745.722656 1413.421875 748.785156 C 1411.816406 759.847656 1409.578125 770.917969 1407.644531 781.996094 C 1395.179688 785.078125 1382.6875 787.867188 1369.9375 788.421875 C 1374.6875 780.085938 1380.800781 772.351562 1384.097656 763.3125 C 1384.851562 761.222656 1385.460938 759.09375 1385.925781 756.917969 C 1389.527344 756.144531 1392.953125 754.878906 1396.195312 753.128906 C 1402.902344 749.511719 1408.347656 743.925781 1414.609375 739.585938 Z M 1414.609375 739.585938 " fill-opacity="1" fill-rule="nonzero"/><path fill="#fccfc9" d="M 1347.75 750.734375 C 1344.242188 762.394531 1338.089844 773.160156 1333.492188 784.496094 C 1320.59375 781.566406 1307.851562 777.535156 1295.035156 774.070312 C 1298.46875 764.917969 1302.503906 755.941406 1305.761719 746.71875 C 1307.914062 740.746094 1309.527344 734.628906 1310.601562 728.371094 C 1313.167969 729.492188 1315.683594 730.738281 1318.152344 732.117188 C 1326.582031 736.832031 1334.164062 742.941406 1342.480469 747.859375 C 1344.171875 748.886719 1345.9375 749.84375 1347.75 750.734375 Z M 1347.75 750.734375 " fill-opacity="1" fill-rule="nonzero"/></svg>